<svg width="28" height="28" viewBox="0 0 28 28" fill="none" xmlns="http://www.w3.org/2000/svg">
<rect x="1.25" y="1.25" width="25.5" height="25.5" rx="12.75" fill="#F8E9EA"/>
<path d="M14.0123 14.6364C14.0123 15.5568 13.8461 16.3523 13.5137 17.0227C13.1813 17.6932 12.7253 18.2102 12.1458 18.5739C11.5662 18.9375 10.9043 19.1193 10.16 19.1193C9.41566 19.1193 8.75373 18.9375 8.17418 18.5739C7.59464 18.2102 7.13867 17.6932 6.80629 17.0227C6.4739 16.3523 6.30771 15.5568 6.30771 14.6364C6.30771 13.7159 6.4739 12.9205 6.80629 12.25C7.13867 11.5795 7.59464 11.0625 8.17418 10.6989C8.75373 10.3352 9.41566 10.1534 10.16 10.1534C10.9043 10.1534 11.5662 10.3352 12.1458 10.6989C12.7253 11.0625 13.1813 11.5795 13.5137 12.25C13.8461 12.9205 14.0123 13.7159 14.0123 14.6364ZM12.9895 14.6364C12.9895 13.8807 12.8631 13.2429 12.6103 12.723C12.3603 12.2031 12.0208 11.8097 11.5918 11.5426C11.1657 11.2756 10.6884 11.142 10.16 11.142C9.63157 11.142 9.15288 11.2756 8.7239 11.5426C8.29776 11.8097 7.95827 12.2031 7.70543 12.723C7.45543 13.2429 7.33043 13.8807 7.33043 14.6364C7.33043 15.392 7.45543 16.0298 7.70543 16.5497C7.95827 17.0696 8.29776 17.4631 8.7239 17.7301C9.15288 17.9972 9.63157 18.1307 10.16 18.1307C10.6884 18.1307 11.1657 17.9972 11.5918 17.7301C12.0208 17.4631 12.3603 17.0696 12.6103 16.5497C12.8631 16.0298 12.9895 15.392 12.9895 14.6364ZM15.7892 19V10.2727H18.7381C19.4199 10.2727 19.9796 10.3892 20.4171 10.6222C20.8546 10.8523 21.1784 11.169 21.3887 11.5724C21.5989 11.9759 21.704 12.4347 21.704 12.9489C21.704 13.4631 21.5989 13.919 21.3887 14.3168C21.1784 14.7145 20.856 15.027 20.4213 15.2543C19.9867 15.4787 19.4313 15.5909 18.7551 15.5909H16.3688V14.6364H18.7211C19.187 14.6364 19.562 14.5682 19.8461 14.4318C20.133 14.2955 20.3404 14.1023 20.4682 13.8523C20.5989 13.5994 20.6642 13.2983 20.6642 12.9489C20.6642 12.5994 20.5989 12.294 20.4682 12.0327C20.3375 11.7713 20.1287 11.5696 19.8418 11.4276C19.5549 11.2827 19.1756 11.2102 18.704 11.2102H16.8461V19H15.7892ZM19.8972 15.0795L22.0449 19H20.8176L18.704 15.0795H19.8972Z" fill="#581012"/>
<rect x="1.25" y="1.25" width="25.5" height="25.5" rx="12.75" stroke="white" stroke-width="1.5"/>
</svg>
