<svg width="19" height="19" viewBox="0 0 19 19" fill="none" xmlns="http://www.w3.org/2000/svg">
<path d="M9.28025 2.21975C9.21072 2.14997 9.12808 2.09463 9.03707 2.05691C8.94607 2.0192 8.84851 1.99986 8.75 2H5C4.90149 1.99986 4.80393 2.0192 4.71293 2.05691C4.62192 2.09463 4.53928 2.14997 4.46975 2.21975L2.21975 4.46975C2.14997 4.53928 2.09463 4.62192 2.05691 4.71293C2.0192 4.80393 1.99986 4.90149 2 5V8.75C2 8.9495 2.07875 9.14 2.21975 9.28025L9.71975 16.7803C9.78924 16.8501 9.87186 16.9056 9.96286 16.9435C10.0539 16.9813 10.1514 17.0008 10.25 17.0008C10.3486 17.0008 10.4461 16.9813 10.5371 16.9435C10.6281 16.9056 10.7108 16.8501 10.7802 16.7803L16.7803 10.7803C16.85 10.7107 16.9053 10.628 16.943 10.537C16.9807 10.446 17.0002 10.3485 17.0002 10.25C17.0002 10.1515 16.9807 10.054 16.943 9.96298C16.9053 9.872 16.85 9.78934 16.7803 9.71975L9.28025 2.21975ZM6.76475 8C6.60002 8.00411 6.43614 7.97522 6.28275 7.91503C6.12936 7.85485 5.98956 7.76458 5.87158 7.64955C5.75361 7.53451 5.65984 7.39704 5.5958 7.24521C5.53176 7.09339 5.49874 6.93029 5.49869 6.76551C5.49864 6.60073 5.53156 6.43761 5.59551 6.28575C5.65946 6.13389 5.75314 5.99636 5.87105 5.88125C5.98895 5.76614 6.1287 5.67579 6.28205 5.61551C6.43541 5.55523 6.59927 5.52624 6.764 5.53025C7.08624 5.53809 7.39266 5.67159 7.61783 5.90224C7.843 6.13289 7.96909 6.44242 7.96919 6.76476C7.96929 7.0871 7.84338 7.39671 7.61835 7.62749C7.39332 7.85828 7.08699 7.99196 6.76475 8Z" fill="url(#paint0_linear_917_21982)"/>
<defs>
<linearGradient id="paint0_linear_917_21982" x1="2" y1="10.8191" x2="19.3278" y2="10.8191" gradientUnits="userSpaceOnUse">
<stop stop-color="#A54189"/>
<stop offset="0.453125" stop-color="#EE3A3E"/>
<stop offset="0.9999" stop-color="#F79431"/>
<stop offset="1" stop-color="#C4C4C4" stop-opacity="0"/>
</linearGradient>
</defs>
</svg>
