<svg width="100" height="100" viewBox="0 0 100 100" fill="none" xmlns="http://www.w3.org/2000/svg">
<path d="M94.2482 57.4904L76.8176 30.8491C76.4589 30.2999 75.9912 29.8538 75.4522 29.5467C74.9132 29.2396 74.318 29.0801 73.7146 29.0811H21.0805C20.477 29.0801 19.8818 29.2396 19.3428 29.5467C18.8039 29.8538 18.3362 30.2999 17.9774 30.8491L0.546875 57.4904V89.9566C0.546875 91.723 1.16691 93.4171 2.27058 94.6661C3.37425 95.9152 4.87114 96.6169 6.43196 96.6169H88.3738C89.9346 96.6169 91.4315 95.9152 92.5352 94.6661C93.6389 93.4171 94.2589 91.723 94.2589 89.9566L94.2482 57.4904Z" fill="#2C2A3B"/>
<path d="M88.3727 97.1968H6.42015C4.71743 97.1968 3.08445 96.4313 1.88045 95.0687C0.676449 93.7061 4.83915e-05 91.858 4.83915e-05 89.931V57.477C-0.00150002 57.3466 0.0341473 57.2192 0.101697 57.1137L17.5323 30.4723C17.9425 29.8481 18.4758 29.3408 19.0897 28.9908C19.7037 28.6408 20.3813 28.4577 21.0687 28.4561H73.7028C74.3902 28.4577 75.0678 28.6408 75.6817 28.9908C76.2956 29.3408 76.8289 29.8481 77.2392 30.4723L94.6697 57.1137C94.7373 57.2192 94.7729 57.3466 94.7714 57.477V89.9431C94.7686 91.8638 94.0939 93.7051 92.8948 95.0644C91.6957 96.4237 90.0698 97.1904 88.3727 97.1968ZM1.08076 57.6768V89.9431C1.08076 91.5489 1.64443 93.089 2.64777 94.2245C3.6511 95.36 5.01191 95.9979 6.43084 95.9979H88.3727C89.7916 95.9979 91.1524 95.36 92.1558 94.2245C93.1591 93.089 93.7228 91.5489 93.7228 89.9431V57.6768L76.3992 31.1868C76.0889 30.7146 75.6855 30.3308 75.2211 30.0659C74.7567 29.801 74.2442 29.6624 73.7242 29.661H21.0794C20.5594 29.6624 20.0468 29.801 19.5824 30.0659C19.1181 30.3308 18.7147 30.7146 18.4043 31.1868L1.08076 57.6768Z" fill="#2C2A3B"/>
<path d="M94.2511 57.4758V89.9419C94.2511 91.7083 93.6311 93.4024 92.5274 94.6515C91.4237 95.9005 89.9268 96.6022 88.366 96.6022H6.42415C4.86333 96.6022 3.36643 95.9005 2.26276 94.6515C1.1591 93.4024 0.539062 91.7083 0.539062 89.9419V57.4758H25.9038L28.2899 70.7965C28.5059 71.9936 29.0808 73.0696 29.9173 73.842C30.7539 74.6144 31.8007 75.0358 32.8803 75.0349H62.2201C63.314 75.0338 64.3732 74.6008 65.2151 73.8105C66.057 73.0201 66.6289 71.9221 66.8319 70.7056L69.0362 57.4395L94.2511 57.4758Z" fill="#74BB91"/>
<path d="M88.3673 97.1971H6.4201C4.71738 97.1971 3.0844 96.4316 1.8804 95.069C0.6764 93.7064 0 91.8583 0 89.9313V57.4773C0 57.3167 0.0563664 57.1627 0.1567 57.0491C0.257033 56.9356 0.393115 56.8718 0.535008 56.8718H25.8997C26.0249 56.8689 26.147 56.9158 26.2447 57.0043C26.3425 57.0928 26.4097 57.2173 26.4348 57.3562L28.8209 70.6768C29.0108 71.7396 29.5192 72.6955 30.2601 73.3828C31.001 74.0702 31.9289 74.4468 32.887 74.449H62.2268C63.1959 74.448 64.1342 74.0638 64.8796 73.3629C65.625 72.6619 66.1306 71.6883 66.3089 70.6102L68.5131 57.3441C68.537 57.2041 68.6038 57.0782 68.7017 56.9885C68.7995 56.8988 68.9222 56.851 69.0481 56.8536H94.2524C94.3943 56.8536 94.5304 56.9174 94.6307 57.031C94.731 57.1445 94.7874 57.2985 94.7874 57.4591V89.9252C94.7881 90.8799 94.6226 91.8254 94.3002 92.7076C93.9779 93.5898 93.5051 94.3915 92.9089 95.0669C92.3126 95.7422 91.6047 96.2779 90.8254 96.6434C90.0461 97.009 89.2108 97.1971 88.3673 97.1971ZM1.08071 58.0828V89.9434C1.08071 91.5492 1.64438 93.0893 2.64772 94.2248C3.65105 95.3603 5.01187 95.9982 6.4308 95.9982H88.3673C89.7862 95.9982 91.147 95.3603 92.1504 94.2248C93.1537 93.0893 93.7174 91.5492 93.7174 89.9434V58.0828H69.4868L67.3468 70.8524C67.1246 72.2112 66.4895 73.4392 65.5515 74.3238C64.6135 75.2084 63.4317 75.694 62.2107 75.6963H32.887C31.6823 75.6942 30.5152 75.2211 29.5832 74.3572C28.6512 73.4933 28.0115 72.2916 27.7723 70.9554L25.461 58.0828H1.08071Z" fill="#2C2A3B"/>
<path d="M21.1324 83.376H10.6249C10.483 83.376 10.3469 83.3122 10.2465 83.1987C10.1462 83.0851 10.0898 82.9311 10.0898 82.7705C10.0898 82.6099 10.1462 82.4559 10.2465 82.3424C10.3469 82.2288 10.483 82.165 10.6249 82.165H21.1324C21.2743 82.165 21.4104 82.2288 21.5107 82.3424C21.6111 82.4559 21.6674 82.6099 21.6674 82.7705C21.6674 82.9311 21.6111 83.0851 21.5107 83.1987C21.4104 83.3122 21.2743 83.376 21.1324 83.376Z" fill="#2C2A3B"/>
<path d="M28.4024 21.0887C28.2372 21.0878 28.0744 21.0436 27.9269 20.9595C27.7793 20.8755 27.6509 20.7539 27.5518 20.6043L20.2703 9.70559C20.0993 9.44865 20.0255 9.12537 20.0652 8.80686C20.1048 8.48835 20.2546 8.2007 20.4816 8.0072C20.7087 7.81369 20.9943 7.73019 21.2757 7.77504C21.5572 7.81989 21.8113 7.98943 21.9823 8.24637L29.2584 19.1451C29.4293 19.4013 29.5033 19.7238 29.4641 20.0417C29.425 20.3595 29.276 20.6469 29.0498 20.8405C28.8638 21.0011 28.6364 21.0883 28.4024 21.0887Z" fill="#74BB91"/>
<path d="M62.8766 21.0858C62.643 21.0832 62.4162 20.9962 62.2293 20.8376C62.0031 20.644 61.854 20.3567 61.8149 20.0388C61.7758 19.7209 61.8498 19.3984 62.0206 19.1422L69.3021 8.24348C69.4765 7.99856 69.7283 7.84008 70.0042 7.80159C70.2801 7.76309 70.5584 7.8476 70.7802 8.03723C71.0019 8.22685 71.1498 8.50672 71.1925 8.81757C71.2352 9.12842 71.1693 9.44586 71.0088 9.7027L63.7327 20.6014C63.633 20.7518 63.5037 20.8739 63.3552 20.958C63.2066 21.0421 63.0428 21.0858 62.8766 21.0858Z" fill="#74BB91"/>
<path d="M46.488 17.4682C46.2042 17.4682 45.932 17.3407 45.7314 17.1136C45.5307 16.8865 45.418 16.5784 45.418 16.2573V1.21097C45.418 0.889801 45.5307 0.581785 45.7314 0.354684C45.932 0.127583 46.2042 0 46.488 0C46.7718 0 47.0439 0.127583 47.2446 0.354684C47.4453 0.581785 47.558 0.889801 47.558 1.21097V16.2573C47.558 16.5784 47.4453 16.8865 47.2446 17.1136C47.0439 17.3407 46.7718 17.4682 46.488 17.4682Z" fill="#74BB91"/>
<path d="M97.3962 78.7573H66.5851C65.4357 78.7573 64.5039 79.8118 64.5039 81.1127V97.043C64.5039 98.3438 65.4357 99.3983 66.5851 99.3983H97.3962C98.5456 99.3983 99.4774 98.3438 99.4774 97.043V81.1127C99.4774 79.8118 98.5456 78.7573 97.3962 78.7573Z" fill="#EFD2D3"/>
<path d="M97.3843 100H66.5732C65.8798 99.9985 65.2152 99.686 64.7249 99.1311C64.2345 98.5762 63.9584 97.824 63.957 97.0393V81.1029C63.9584 80.3181 64.2345 79.566 64.7249 79.0111C65.2152 78.4561 65.8798 78.1437 66.5732 78.1421H97.3843C98.0778 78.1437 98.7424 78.4561 99.2327 79.0111C99.723 79.566 99.9991 80.3181 100.001 81.1029V97.0393C99.9991 97.824 99.723 98.5762 99.2327 99.1311C98.7424 99.686 98.0778 99.9985 97.3843 100ZM66.5732 79.3531C66.1632 79.3531 65.7699 79.5374 65.4799 79.8656C65.1899 80.1937 65.027 80.6388 65.027 81.1029V97.0393C65.027 97.5034 65.1899 97.9485 65.4799 98.2766C65.7699 98.6048 66.1632 98.7891 66.5732 98.7891H97.3843C97.794 98.7875 98.1864 98.6027 98.4761 98.2749C98.7657 97.947 98.9291 97.5029 98.9305 97.0393V81.1029C98.9291 80.6393 98.7657 80.1952 98.4761 79.8673C98.1864 79.5395 97.794 79.3547 97.3843 79.3531H66.5732Z" fill="#2C2A3B"/>
<path d="M69.7734 84.9873H73.8716V86.3799H71.1003V87.6514H73.7164V89.038H71.1003V90.4306H74.0214V91.8172H69.7734V84.9873Z" fill="#2C2A3B"/>
<path d="M74.9141 87.0949H76.1446V87.7306C76.1877 87.6313 76.2456 87.5412 76.3158 87.4642C76.3913 87.3682 76.4798 87.2865 76.5779 87.222C76.6873 87.1481 76.804 87.0891 76.9257 87.0464C77.0649 87.0019 77.209 86.9795 77.3537 86.9798C77.6211 86.9742 77.8856 87.0428 78.1241 87.1796C78.353 87.322 78.5323 87.5484 78.6324 87.8214C78.7509 87.5509 78.9369 87.3257 79.1674 87.1736C79.3989 87.0523 79.65 86.9864 79.905 86.9802C80.16 86.9739 80.4134 87.0274 80.6493 87.1372C80.8286 87.2384 80.983 87.3881 81.0988 87.5732C81.2155 87.7693 81.2973 87.9894 81.3395 88.2211C81.3883 88.4818 81.4116 88.7478 81.4091 89.0142V91.7813H80.1304V89.0506C80.1343 88.8538 80.0918 88.6595 80.0073 88.4875C79.9605 88.4062 79.8948 88.3412 79.8174 88.2995C79.74 88.2578 79.6539 88.2412 79.5686 88.2513C79.4415 88.2469 79.3151 88.276 79.1995 88.3361C79.1029 88.3849 79.0197 88.4623 78.9587 88.5601C78.8979 88.6633 78.8544 88.7782 78.8303 88.8992C78.8038 89.0323 78.7912 89.1685 78.7929 89.3049V91.7813H77.5142V89.3049C77.5142 89.2201 77.5142 89.1172 77.5142 88.9961C77.5088 88.876 77.4872 88.7575 77.45 88.6449C77.419 88.5362 77.3615 88.4397 77.2841 88.3664C77.1865 88.2861 77.0677 88.2455 76.9471 88.2513C76.8094 88.2458 76.6729 88.2813 76.5512 88.3543C76.4517 88.4156 76.37 88.5081 76.3158 88.6207C76.2603 88.7396 76.224 88.8688 76.2088 89.0021C76.2005 89.1513 76.2005 89.301 76.2088 89.4502V91.7813H74.9301L74.9141 87.0949Z" fill="#2C2A3B"/>
<path d="M82.457 87.1068H83.6341V87.7122C83.6927 87.6187 83.761 87.5333 83.8374 87.4579C83.9225 87.3631 84.0199 87.2835 84.1263 87.2218C84.2403 87.1499 84.3604 87.0911 84.4847 87.0462C84.6222 87.0021 84.7645 86.9797 84.9074 86.9796C85.193 86.9765 85.4764 87.0362 85.742 87.1552C85.9831 87.2734 86.2012 87.4442 86.384 87.6578C86.5648 87.8808 86.7048 88.1422 86.796 88.4267C86.895 88.7393 86.9439 89.0695 86.9404 89.4015C86.9415 89.7201 86.8982 90.0368 86.812 90.3401C86.7276 90.6277 86.5991 90.8962 86.4322 91.1332C86.2737 91.3647 86.0729 91.5547 85.8436 91.6903C85.5986 91.8314 85.3267 91.9021 85.0518 91.8962C84.7968 91.9006 84.5432 91.8534 84.3028 91.7569C84.0746 91.6677 83.8764 91.5006 83.7357 91.2786V93.979H82.457V87.1068ZM83.6341 89.45C83.6209 89.7651 83.7168 90.0735 83.9016 90.3098C83.9999 90.4212 84.1179 90.508 84.2479 90.5643C84.3779 90.6207 84.5169 90.6453 84.6559 90.6367C84.795 90.6465 84.9343 90.6224 85.0645 90.566C85.1946 90.5096 85.3125 90.4222 85.4103 90.3098C85.5831 90.0659 85.6772 89.7626 85.6772 89.45C85.6772 89.1374 85.5831 88.8341 85.4103 88.5902C85.3125 88.4778 85.1946 88.3904 85.0645 88.334C84.9343 88.2776 84.795 88.2535 84.6559 88.2632C84.5169 88.2546 84.3779 88.2793 84.2479 88.3357C84.1179 88.392 83.9999 88.4787 83.9016 88.5902C83.8075 88.7102 83.7354 88.8501 83.6894 89.0018C83.6435 89.1536 83.6247 89.3142 83.6341 89.4742V89.45Z" fill="#2C2A3B"/>
<path d="M90.5248 88.2977H89.396V89.8599C89.3873 89.9767 89.3873 90.0942 89.396 90.2111C89.4021 90.3091 89.4277 90.4043 89.4709 90.4896C89.5146 90.5674 89.578 90.6286 89.6528 90.6652C89.7562 90.7132 89.8674 90.7359 89.9791 90.7318C90.0487 90.7318 90.1396 90.7318 90.252 90.7318C90.344 90.7222 90.4314 90.6822 90.5034 90.6167V91.8277C90.3602 91.8867 90.211 91.9254 90.0594 91.9427C89.9086 91.9647 89.7567 91.9748 89.6046 91.973C89.4045 91.9759 89.2049 91.9495 89.0108 91.8943C88.8395 91.8498 88.6777 91.7674 88.5346 91.6521C88.3958 91.5385 88.2852 91.3863 88.2136 91.2101C88.1314 91.0049 88.0911 90.7814 88.0959 90.5562V88.2977H87.2773V87.0868H88.0959V85.7002H89.3746V87.0868H90.5034L90.5248 88.2977Z" fill="#2C2A3B"/>
<path d="M93.5514 92.5265C93.4658 92.7748 93.3802 92.9988 93.3 93.1926C93.2312 93.376 93.1291 93.541 93.0003 93.6769C92.868 93.8173 92.7087 93.9209 92.5349 93.9797C92.2943 94.0527 92.0455 94.0854 91.7966 94.0766C91.4714 94.0789 91.148 94.0217 90.8389 93.907L91.0101 92.6961C91.1968 92.7914 91.3992 92.8409 91.604 92.8414C91.7235 92.8457 91.8429 92.8272 91.9571 92.7869C92.0424 92.7565 92.1197 92.7024 92.1818 92.6294C92.2431 92.5585 92.2937 92.4767 92.3316 92.3873L92.46 92.0482L92.5509 91.7757L90.7266 87.0771H92.1069L93.1769 90.1712L94.0918 87.0771H95.4025L93.5514 92.5265Z" fill="#2C2A3B"/>
</svg>
