<svg width="20" height="18" viewBox="0 0 20 18" fill="none" xmlns="http://www.w3.org/2000/svg">
<g clip-path="url(#clip0_1361_14331)">
<path d="M1.51288 15.3139L2.39483 16.8372C2.5781 17.158 2.84151 17.41 3.15078 17.5933C4.03664 16.4688 4.65315 15.6059 5.00062 15.0047C5.35317 14.3945 5.78649 13.44 6.30059 12.1412C4.91508 11.9588 3.86518 11.8677 3.15086 11.8677C2.46522 11.8677 1.41531 11.9588 0.000976562 12.1412C0.000976562 12.4963 0.0926093 12.8513 0.275875 13.1721L1.51288 15.3139Z" fill="#0066DA"/>
<path d="M16.8493 17.5933C17.1586 17.41 17.422 17.158 17.6052 16.8373L17.9717 16.2074L19.7242 13.1721C19.9041 12.8583 19.9989 12.5029 19.9991 12.1412C18.5765 11.9588 17.5286 11.8677 16.855 11.8677C16.1312 11.8677 15.0832 11.9588 13.7109 12.1412C14.2189 13.4471 14.6466 14.4016 14.9938 15.0047C15.344 15.6131 15.9625 16.476 16.8493 17.5933Z" fill="#EA4335"/>
<path d="M10.0004 5.72693C11.0253 4.48915 11.7317 3.53462 12.1194 2.8635C12.4316 2.32308 12.7752 1.46019 13.1502 0.274898C12.8409 0.0916328 12.4859 0 12.1194 0H7.88143C7.5149 0 7.15993 0.103116 6.85059 0.274898C7.32758 1.63431 7.73238 2.60181 8.06486 3.17731C8.43232 3.81334 9.0775 4.66319 10.0004 5.72693Z" fill="#00832D"/>
<path d="M13.6993 12.1411H6.30012L3.15039 17.5931C3.45958 17.7764 3.81463 17.868 4.18116 17.868H15.8183C16.1848 17.868 16.5399 17.7649 16.8491 17.5931L13.6994 12.1411H13.6993Z" fill="#2684FC"/>
<path d="M10.0002 5.72686L6.85047 0.274902C6.54112 0.458168 6.2777 0.710099 6.09444 1.03085L0.275875 11.1102C0.0959782 11.424 0.00121424 11.7794 0.000976562 12.1411H6.30059L10.0002 5.72686Z" fill="#00AC47"/>
<path d="M16.815 6.07058L13.9057 1.03085C13.7225 0.710099 13.459 0.458168 13.1497 0.274902L10 5.72693L13.6995 12.1411H19.9877C19.9877 11.786 19.8961 11.4311 19.7128 11.1103L16.815 6.07058Z" fill="#FFBA00"/>
</g>
<defs>
<clipPath id="clip0_1361_14331">
<rect width="20" height="17.8891" fill="white"/>
</clipPath>
</defs>
</svg>
