<svg width="38" height="38" viewBox="0 0 38 38" fill="none" xmlns="http://www.w3.org/2000/svg">
<rect width="38" height="38" fill="white" fill-opacity="0.01"/>
<path fill-rule="evenodd" clip-rule="evenodd" d="M10.2678 27.976C10.5618 28.2701 10.911 28.5035 11.2953 28.6627C11.6796 28.822 12.0914 28.9039 12.5074 28.9039C12.9234 28.9039 13.3353 28.822 13.7195 28.6627C14.1038 28.5035 14.453 28.2701 14.747 27.976L10.2678 23.4951C9.97335 23.7892 9.73978 24.1385 9.58042 24.5229C9.42106 24.9073 9.33904 25.3194 9.33904 25.7355C9.33904 26.1517 9.42106 26.5638 9.58042 26.9482C9.73978 27.3326 9.97335 27.6819 10.2678 27.976ZM18.0214 8.67354L16.8734 9.82146C15.6353 11.0596 13.3743 12.692 11.7973 13.4805L7.02036 15.8698C6.23661 16.2625 6.0957 17.0953 6.72428 17.7239L20.2713 31.2709C20.9014 31.8979 21.7311 31.7665 22.1254 30.9732L24.5162 26.1979C25.2984 24.6335 26.9324 22.3662 28.1753 21.1217L29.3232 19.9722C30.6266 18.6689 31.4396 16.9551 31.6242 15.1211C31.8089 13.287 31.354 11.4456 30.3365 9.90854C30.5068 9.77211 30.6473 9.60228 30.7495 9.4095C30.8517 9.21672 30.9134 9.00507 30.9307 8.78758C30.948 8.57008 30.9207 8.35134 30.8503 8.14481C30.7799 7.93829 30.668 7.74835 30.5215 7.58668C30.375 7.42501 30.1969 7.29503 29.9983 7.20475C29.7997 7.11446 29.5847 7.06578 29.3665 7.06169C29.1484 7.0576 28.9317 7.0982 28.7298 7.18098C28.528 7.26376 28.3452 7.38698 28.1927 7.54304C28.1563 7.58263 28.1199 7.62063 28.0882 7.66179C26.7795 6.79406 25.2441 6.33144 23.6739 6.33179C22.624 6.33054 21.5843 6.53662 20.6142 6.9382C19.6442 7.33979 18.7631 7.92898 18.0214 8.67196V8.67354Z" fill="#AAAAAA"/>
</svg>
