<svg width="20" height="13" viewBox="0 0 20 13" fill="none" xmlns="http://www.w3.org/2000/svg">
<g clip-path="url(#clip0_1361_14342)">
<path d="M12.0812 8.64429L16.2082 4.69756C15.3509 1.35485 11.9462 -0.659911 8.6035 0.1974C7.09826 0.583439 5.79088 1.51653 4.93652 2.81455C5.00033 2.81299 12.0812 8.64429 12.0812 8.64429Z" fill="#0364B8"/>
<path d="M7.62695 3.5576L7.6268 3.55831C6.8382 3.06988 5.92873 2.81172 5.00113 2.81299C4.97973 2.81299 4.95865 2.81432 4.93725 2.81455C2.17819 2.84876 -0.03081 5.11321 0.00331991 7.87235C0.0157144 8.87317 0.328427 9.8472 0.90093 10.6682L7.08376 9.89383L11.824 6.07158L7.62695 3.5576Z" fill="#0078D4"/>
<path d="M16.2091 4.69773C16.1179 4.69127 16.0264 4.68786 15.935 4.6875C15.3813 4.68697 14.8335 4.80004 14.3253 5.01974L14.3252 5.01935L11.8242 6.07176L14.5813 9.47749L19.5103 10.6756C20.574 8.70101 19.8355 6.23795 17.8608 5.17422C17.3505 4.89939 16.7873 4.73687 16.2091 4.69773Z" fill="#1490DF"/>
<path d="M0.901367 10.6682C1.36131 11.3295 1.97447 11.8697 2.68848 12.2425C3.40249 12.6154 4.19614 12.8099 5.00165 12.8095H15.9353C16.6683 12.8097 17.3878 12.6114 18.0173 12.2357C18.6468 11.86 19.1628 11.3209 19.5106 10.6756L11.8244 6.07153L0.901367 10.6682Z" fill="#28A8EA"/>
</g>
<defs>
<clipPath id="clip0_1361_14342">
<rect width="20" height="12.8866" fill="white"/>
</clipPath>
</defs>
</svg>
