<svg width="29" height="28" viewBox="0 0 29 28" fill="none" xmlns="http://www.w3.org/2000/svg">
<g id="Secondary/Solid/bxs-pencil">
<path id="Vector" d="M10.4082 22.9916L21.25 12.1497L16.1003 7.00006L5.2585 17.8419C5.10924 17.9913 5.00321 18.1784 4.95167 18.3832L3.75 24.5001L9.86567 23.2984C10.071 23.2471 10.2588 23.1409 10.4082 22.9916ZM24.75 8.64973C25.1874 8.21216 25.4332 7.61878 25.4332 7.00006C25.4332 6.38135 25.1874 5.78796 24.75 5.3504L22.8997 3.50006C22.4621 3.06263 21.8687 2.81689 21.25 2.81689C20.6313 2.81689 20.0379 3.06263 19.6003 3.50006L17.75 5.3504L22.8997 10.5001L24.75 8.64973Z" fill="#59595E"/>
</g>
</svg>
