<svg width="174" height="183" viewBox="0 0 174 183" fill="none" xmlns="http://www.w3.org/2000/svg">
<path opacity="0.34" d="M100.777 26.4959C84.938 27.9738 72.4618 40.041 58.5354 47.7714C50.5447 52.2192 41.8922 55.2879 33.7814 59.5037C25.6706 63.7195 17.9384 69.353 13.5048 77.352C5.08824 92.5102 10.6471 111.353 8.50597 128.56C7.81953 134.055 6.32235 139.492 6.54602 145.019C6.72298 149.394 7.97798 153.669 9.70556 157.672C16.676 173.98 31.7996 186.541 49.0929 190.386C60.5005 192.92 72.4888 191.847 83.8458 194.668C100.962 198.917 115.724 211.786 133.347 212.423C141.475 212.71 149.444 210.333 157.175 207.799C172.518 202.766 188.966 195.9 196.397 181.538C201.854 170.991 201.429 158.063 207.377 147.789C210.83 141.827 216.193 137.204 219.992 131.457C228.055 119.274 228.101 102.739 221.712 89.6128C215.322 76.4864 203.165 66.7088 189.58 61.4086C180.672 57.9315 171.177 56.2425 162.053 53.3762C139.778 46.4054 126.719 24.0747 100.777 26.4959Z" fill="#EEEDF8"/>
<path d="M151.043 112.764V108.362C151.038 104.153 149.363 100.117 146.386 97.1415C143.409 94.1656 139.373 92.4923 135.164 92.4888H130.359C128.328 73.1111 115.614 59.999 98.0001 59.999C80.3864 59.999 67.6747 73.1111 65.6438 92.4888H60.836C56.6268 92.4923 52.5908 94.1656 49.6139 97.1415C46.637 100.117 44.9624 104.153 44.9575 108.362V112.764C42.2093 113.131 39.6598 114.397 37.7063 116.365C35.7528 118.332 34.5051 120.891 34.1576 123.642C33.8102 126.393 34.3826 129.181 35.7855 131.573C37.1884 133.964 39.3431 135.824 41.9138 136.863C42.1796 136.973 42.4684 137.015 42.7546 136.987C43.0407 136.958 43.3155 136.86 43.5545 136.7C43.7936 136.54 43.9896 136.324 44.1252 136.07C44.2608 135.816 44.3318 135.533 44.332 135.246V127.499C44.3525 126.883 44.6117 126.298 45.0549 125.87C45.4981 125.441 46.0905 125.201 46.7071 125.201C47.3237 125.201 47.9162 125.441 48.3594 125.87C48.8026 126.298 49.0618 126.883 49.0822 127.499V135.248C49.0833 135.537 49.1556 135.821 49.2925 136.074C49.4295 136.328 49.6269 136.544 49.8674 136.704C50.156 136.895 50.4945 136.998 50.841 136.999C51.0692 137 51.2953 136.954 51.5057 136.866C54.0777 135.827 56.2336 133.967 57.6372 131.574C59.0409 129.182 59.6133 126.392 59.2651 123.641C58.917 120.889 57.668 118.329 55.7128 116.362C53.7576 114.395 51.2063 113.13 48.4567 112.764V108.362C48.4602 105.08 49.7657 101.934 52.0867 99.6142C54.4076 97.2942 57.5544 95.9901 60.836 95.988H65.4082C65.3821 96.658 65.3323 97.3097 65.3323 97.9901V151.619C65.3323 151.848 65.3776 152.076 65.4654 152.288C65.5533 152.5 65.6821 152.693 65.8444 152.855C66.0068 153.017 66.1995 153.146 66.4116 153.234C66.6237 153.322 66.851 153.367 67.0806 153.367H73.2441C72.0462 154.516 71.0927 155.895 70.4406 157.421C69.7885 158.948 69.4513 160.59 69.4492 162.25C69.4492 162.48 69.4945 162.707 69.5825 162.92C69.6705 163.132 69.7995 163.325 69.9622 163.487C70.1248 163.649 70.3178 163.778 70.5302 163.866C70.7427 163.954 70.9703 163.999 71.2001 163.998H91.1954C91.4252 163.999 91.6528 163.954 91.8652 163.866C92.0777 163.778 92.2707 163.649 92.4333 163.487C92.5959 163.325 92.7249 163.132 92.813 162.92C92.901 162.707 92.9463 162.48 92.9463 162.25V153.367H103.062V162.25C103.062 162.48 103.107 162.707 103.195 162.92C103.283 163.132 103.412 163.325 103.575 163.487C103.737 163.649 103.93 163.778 104.143 163.866C104.355 163.954 104.583 163.999 104.813 163.998H124.8C125.03 163.999 125.258 163.954 125.47 163.866C125.682 163.778 125.875 163.649 126.038 163.487C126.201 163.325 126.33 163.132 126.418 162.92C126.506 162.707 126.551 162.48 126.551 162.25C126.55 160.59 126.214 158.947 125.563 157.421C124.911 155.894 123.959 154.514 122.761 153.365H128.925C129.155 153.365 129.382 153.32 129.595 153.232C129.807 153.145 130 153.016 130.163 152.853C130.325 152.691 130.454 152.498 130.542 152.286C130.63 152.074 130.676 151.846 130.676 151.616V97.9901C130.676 97.3097 130.626 96.658 130.6 95.988H135.164C138.446 95.9901 141.593 97.2942 143.913 99.6142C146.234 101.934 147.54 105.08 147.543 108.362V112.764C144.796 113.132 142.247 114.399 140.294 116.367C138.341 118.335 137.094 120.893 136.747 123.644C136.4 126.395 136.973 129.183 138.376 131.574C139.78 133.965 141.934 135.825 144.505 136.863C144.715 136.952 144.941 136.997 145.17 136.997C145.516 136.995 145.855 136.893 146.143 136.701C146.384 136.542 146.581 136.326 146.718 136.072C146.855 135.818 146.927 135.534 146.928 135.246V127.499C146.949 126.883 147.208 126.298 147.651 125.87C148.094 125.441 148.687 125.201 149.303 125.201C149.92 125.201 150.513 125.441 150.956 125.87C151.399 126.298 151.658 126.883 151.679 127.499V135.248C151.68 135.534 151.751 135.816 151.887 136.068C152.022 136.32 152.217 136.535 152.454 136.694C152.692 136.854 152.965 136.952 153.249 136.982C153.534 137.011 153.821 136.971 154.086 136.863C156.658 135.825 158.814 133.965 160.218 131.573C161.622 129.181 162.195 126.392 161.847 123.64C161.5 120.888 160.252 118.329 158.297 116.361C156.343 114.393 153.792 113.128 151.043 112.762V112.764ZM55.8215 125.204C55.8234 126.531 55.5343 127.843 54.9745 129.047C54.4147 130.25 53.5979 131.317 52.5814 132.171V127.499C52.5814 125.941 51.9624 124.446 50.8605 123.344C49.7586 122.242 48.2641 121.623 46.7058 121.623C45.1475 121.623 43.653 122.242 42.5512 123.344C41.4493 124.446 40.8302 125.941 40.8302 127.499V132.168C39.6602 131.18 38.7579 129.914 38.2066 128.485C37.6553 127.057 37.4728 125.513 37.676 123.995C37.8792 122.477 38.4614 121.035 39.369 119.802C40.2767 118.569 41.4804 117.585 42.869 116.939C44.2576 116.294 45.7864 116.01 47.3141 116.111C48.8419 116.213 50.3194 116.698 51.6102 117.522C52.901 118.345 53.9634 119.481 54.6995 120.823C55.4355 122.166 55.8214 123.672 55.8215 125.204ZM98.0001 63.4982C115.177 63.4982 127.174 77.6834 127.174 97.9901V129.488H68.8263V97.9901C68.8263 77.6834 80.8235 63.4982 98.0001 63.4982ZM89.4419 160.502H73.1211C73.5279 158.49 74.6175 156.681 76.2053 155.381C77.7931 154.081 79.7815 153.369 81.8337 153.367H89.4419V160.502ZM122.879 160.502H106.558V153.367H114.166C116.219 153.369 118.207 154.081 119.795 155.381C121.383 156.681 122.472 158.49 122.879 160.502ZM114.166 149.868H68.8263V132.987H127.174V149.868H114.166ZM155.17 132.171V127.499C155.17 125.941 154.551 124.446 153.449 123.344C152.347 122.242 150.853 121.623 149.294 121.623C147.736 121.623 146.242 122.242 145.14 123.344C144.038 124.446 143.419 125.941 143.419 127.499V132.171C141.99 130.966 140.966 129.351 140.485 127.545C140.005 125.739 140.091 123.829 140.732 122.074C141.373 120.318 142.539 118.802 144.07 117.731C145.602 116.66 147.425 116.085 149.294 116.085C151.163 116.085 152.987 116.66 154.519 117.731C156.05 118.802 157.215 120.318 157.857 122.074C158.498 123.829 158.584 125.739 158.103 127.545C157.623 129.351 156.599 130.966 155.17 132.171Z" fill="white"/>
<path d="M97.9999 106.446C101.659 106.446 105.236 105.361 108.278 103.328C111.321 101.296 113.692 98.4061 115.093 95.0255C116.493 91.6449 116.859 87.925 116.145 84.3361C115.431 80.7473 113.669 77.4508 111.082 74.8634C108.495 72.276 105.198 70.5139 101.609 69.8001C98.0204 69.0862 94.3005 69.4526 90.9199 70.8529C87.5393 72.2532 84.6499 74.6245 82.617 77.6669C80.5841 80.7094 79.499 84.2864 79.499 87.9455C79.5046 92.8505 81.4555 97.5531 84.9239 101.021C88.3923 104.49 93.0949 106.441 97.9999 106.446ZM97.9999 72.9464C100.967 72.9459 103.868 73.8253 106.335 75.4734C108.803 77.1215 110.726 79.4642 111.862 82.2054C112.997 84.9465 113.295 87.963 112.716 90.8732C112.138 93.7834 110.709 96.4567 108.611 98.555C106.513 100.653 103.84 102.082 100.93 102.661C98.0201 103.24 95.0036 102.944 92.2622 101.808C89.5209 100.673 87.1778 98.75 85.5292 96.2829C83.8807 93.8158 83.0008 90.9153 83.0008 87.9481C83.0043 83.9707 84.5855 80.1571 87.3975 77.3441C90.2094 74.5312 94.0225 72.9486 97.9999 72.9438V72.9464Z" fill="white"/>
<path d="M97.9998 98.1786C100.024 98.1786 102.002 97.5784 103.685 96.454C105.368 95.3295 106.68 93.7313 107.454 91.8614C108.229 89.9916 108.431 87.934 108.036 85.949C107.642 83.9639 106.667 82.1405 105.236 80.7094C103.805 79.2783 101.981 78.3036 99.9962 77.9088C98.0112 77.5139 95.9536 77.7166 94.0837 78.4911C92.2139 79.2656 90.6156 80.5773 89.4912 82.2601C88.3668 83.9429 87.7666 85.9214 87.7666 87.9454C87.7694 90.6585 88.8484 93.2598 90.7669 95.1783C92.6854 97.0968 95.2866 98.1758 97.9998 98.1786ZM97.9998 81.2113C99.3317 81.2113 100.634 81.6063 101.741 82.3462C102.848 83.0862 103.712 84.1379 104.221 85.3684C104.731 86.5988 104.864 87.9528 104.604 89.2591C104.345 90.5654 103.703 91.7653 102.761 92.707C101.82 93.6488 100.62 94.2902 99.3136 94.55C98.0073 94.8098 96.6533 94.6765 95.4228 94.1668C94.1923 93.6571 93.1406 92.794 92.4007 91.6866C91.6607 90.5792 91.2658 89.2772 91.2658 87.9454C91.2679 86.16 91.978 84.4484 93.2404 83.186C94.5029 81.9236 96.2145 81.2134 97.9998 81.2113Z" fill="white"/>
<path d="M116.634 135.638H105.459C104.995 135.638 104.549 135.823 104.221 136.151C103.892 136.48 103.708 136.925 103.708 137.389C103.708 137.854 103.892 138.299 104.221 138.627C104.549 138.956 104.995 139.14 105.459 139.14H116.634C117.099 139.14 117.544 138.956 117.872 138.627C118.201 138.299 118.385 137.854 118.385 137.389C118.385 136.925 118.201 136.48 117.872 136.151C117.544 135.823 117.099 135.638 116.634 135.638Z" fill="white"/>
</svg>
