<svg width="20" height="20" viewBox="0 0 20 20" fill="none" xmlns="http://www.w3.org/2000/svg">
<path d="M3 1C2.46957 1 1.96086 1.21071 1.58579 1.58579C1.21071 1.96086 1 2.46957 1 3V7.5H3V3H8V1H3ZM1 17V11.5H3V17H8V19H3C2.46957 19 1.96086 18.7893 1.58579 18.4142C1.21071 18.0391 1 17.5304 1 17ZM12 17V19H17C17.5304 19 18.0391 18.7893 18.4142 18.4142C18.7893 18.0391 19 17.5304 19 17V11.5H17V17H12ZM17 7.5H19V3C19 2.46957 18.7893 1.96086 18.4142 1.58579C18.0391 1.21071 17.5304 1 17 1H12V3H17V7.5Z" fill="black"/>
<path d="M6 5H14V6H6V5ZM5 8H15V9H5V8ZM6 11H14V12H6V11ZM5 14H15V15H5V14Z" fill="black"/>
</svg>
