<svg width="20" height="20" viewBox="0 0 20 20" fill="none" xmlns="http://www.w3.org/2000/svg">
<g clip-path="url(#clip0_1361_14350)">
<path d="M20 11.25C20 11.94 19.8681 12.5878 19.6042 13.1933C19.3408 13.7989 18.9828 14.3278 18.53 14.78C18.0778 15.2328 17.5489 15.5911 16.9433 15.855C16.3378 16.1183 15.69 16.25 15 16.25C14.5767 16.25 14.1536 16.1944 13.7308 16.0833C13.6719 16.6372 13.5172 17.1533 13.2667 17.6317C13.0161 18.1106 12.6956 18.5256 12.305 18.8767C11.9139 19.2283 11.4678 19.5033 10.9667 19.7017C10.4656 19.9006 9.935 20 9.375 20C8.76944 20 8.20139 19.8844 7.67083 19.6533C7.14028 19.4222 6.67806 19.1097 6.28417 18.7158C5.89028 18.3219 5.57778 17.8597 5.34667 17.3292C5.11556 16.7986 5 16.2306 5 15.625C5 15.5206 5.005 15.4164 5.015 15.3125C5.02444 15.2081 5.03556 15.1039 5.04833 15H0.830833C0.603056 15 0.407778 14.9186 0.245 14.7558C0.0822222 14.5931 0.000555556 14.3978 0 14.17V5.83C0 5.60222 0.0813889 5.40694 0.244167 5.24417C0.406944 5.08139 0.602222 5 0.83 5H3.78C3.85778 4.29056 4.05944 3.63139 4.385 3.0225C4.71056 2.41361 5.12389 1.88472 5.625 1.43583C6.12611 0.986389 6.6975 0.634722 7.33917 0.380833C7.97972 0.126944 8.65833 0 9.375 0C10.15 0 10.8792 0.148056 11.5625 0.444167C12.2458 0.740278 12.8417 1.14222 13.35 1.65C13.8578 2.15833 14.2597 2.75417 14.5558 3.4375C14.8519 4.12083 15 4.85 15 5.625C15 5.72944 14.9967 5.83361 14.99 5.9375C14.9839 6.04194 14.9742 6.14611 14.9608 6.25C15.6508 6.25 16.3019 6.38028 16.9142 6.64083C17.5258 6.90083 18.0614 7.25556 18.5208 7.705C18.9797 8.15444 19.3408 8.68333 19.6042 9.29167C19.8681 9.90055 20 10.5533 20 11.25ZM9.375 1.25C8.83444 1.25 8.31861 1.34444 7.8275 1.53333C7.33583 1.72222 6.89778 1.98417 6.51333 2.31917C6.12944 2.65472 5.80889 3.05194 5.55167 3.51083C5.295 3.96972 5.12778 4.46611 5.05 5H9.17083C9.39861 5 9.59389 5.08139 9.75667 5.24417C9.91944 5.40694 10.0008 5.60222 10.0008 5.83V9.95083L10.1758 9.92167C10.2936 9.505 10.4631 9.10944 10.6842 8.735C10.9058 8.36111 11.1681 8.02278 11.4708 7.72C11.7736 7.41722 12.1106 7.155 12.4817 6.93333C12.8528 6.71222 13.25 6.54278 13.6733 6.425C13.725 6.14556 13.7508 5.87889 13.7508 5.625C13.7508 5.01944 13.6353 4.45139 13.4042 3.92083C13.1731 3.39028 12.8606 2.92806 12.4667 2.53417C12.0728 2.14028 11.6106 1.82778 11.08 1.59667C10.5489 1.36556 9.98056 1.25 9.375 1.25ZM5.0975 13.2517C5.3975 13.2517 5.69194 13.2208 5.98083 13.1592C6.27083 13.0975 6.52972 12.9947 6.7575 12.8508C6.98528 12.7081 7.16917 12.5194 7.30917 12.285C7.44917 12.0506 7.51917 11.7575 7.51917 11.4058C7.51917 11.0547 7.44611 10.7619 7.3 10.5275C7.15333 10.2931 6.96944 10.0978 6.74833 9.94167C6.52667 9.785 6.28889 9.65639 6.035 9.55583L5.3225 9.2725C5.10083 9.18472 4.91694 9.09194 4.77083 8.99417C4.62417 8.89639 4.55083 8.77278 4.55083 8.62333C4.55083 8.51222 4.58972 8.4225 4.6675 8.35417C4.74583 8.28583 4.83889 8.23222 4.94667 8.19333C5.05389 8.15444 5.16611 8.12833 5.28333 8.115C5.4 8.10222 5.4975 8.09583 5.57583 8.09583C5.90806 8.09583 6.20111 8.13805 6.455 8.2225C6.70889 8.3075 6.97278 8.43444 7.24667 8.60333V7.11917C7.09 7.07361 6.945 7.03472 6.81167 7.0025C6.67833 6.96917 6.54639 6.94139 6.41583 6.91917C6.28583 6.89639 6.15083 6.88 6.01083 6.87C5.87083 6.86056 5.71611 6.85583 5.54667 6.85583C5.26056 6.85583 4.96778 6.88833 4.66833 6.95333C4.36833 7.01833 4.09639 7.1225 3.8525 7.26583C3.60806 7.40917 3.40944 7.59806 3.25667 7.8325C3.10389 8.06639 3.0275 8.3525 3.0275 8.69083C3.0275 9.02306 3.10056 9.3 3.24667 9.52167C3.39333 9.74278 3.5775 9.93167 3.79917 10.0883C4.02028 10.2439 4.25778 10.3756 4.51167 10.4833L5.225 10.7858C5.44611 10.8803 5.63 10.9797 5.77667 11.0842C5.92278 11.1881 5.99583 11.315 5.99583 11.465C5.99583 11.5883 5.96167 11.6858 5.89333 11.7575C5.825 11.8297 5.73889 11.8853 5.635 11.9242C5.53056 11.9631 5.42139 11.9872 5.3075 11.9967C5.19361 12.0067 5.09111 12.0117 5 12.0117C4.60944 12.0117 4.26278 11.9467 3.96 11.8167C3.65722 11.6861 3.34972 11.5136 3.0375 11.2992V12.8617C3.70139 13.1217 4.38806 13.2517 5.0975 13.2517ZM9.375 18.75C9.80444 18.75 10.2081 18.6686 10.5858 18.5058C10.9636 18.3431 11.2942 18.12 11.5775 17.8367C11.8608 17.5533 12.0853 17.2214 12.2508 16.8408C12.4169 16.4597 12.5 16.0544 12.5 15.625C12.5 15.2539 12.4381 14.8992 12.3142 14.5608C12.1908 14.2219 12.0186 13.9175 11.7975 13.6475C11.5753 13.3775 11.3114 13.1481 11.0058 12.9592C10.7003 12.7703 10.365 12.6369 10 12.5592V14.17C10 14.3978 9.91861 14.5931 9.75583 14.7558C9.59305 14.9186 9.39778 15 9.17 15H6.30833C6.26944 15.2083 6.25 15.4167 6.25 15.625C6.25 16.0544 6.33139 16.4597 6.49417 16.8408C6.65694 17.2219 6.88 17.5539 7.16333 17.8367C7.44667 18.12 7.77861 18.3431 8.15917 18.5058C8.54028 18.6686 8.94556 18.75 9.375 18.75ZM15 15C15.5144 15 15.9994 14.9022 16.455 14.7067C16.9106 14.5117 17.3094 14.2433 17.6517 13.9017C17.9933 13.5594 18.2617 13.1622 18.4567 12.71C18.6522 12.2572 18.75 11.7706 18.75 11.25C18.75 10.7356 18.6522 10.2506 18.4567 9.795C18.2617 9.33944 17.9933 8.94056 17.6517 8.59833C17.3094 8.25667 16.9106 7.98833 16.455 7.79333C15.9994 7.59778 15.5144 7.5 15 7.5C14.4856 7.5 14.0022 7.59917 13.55 7.7975C13.0972 7.99639 12.7 8.26667 12.3583 8.60833C12.0167 8.95 11.7464 9.34722 11.5475 9.8C11.3492 10.2522 11.25 10.7356 11.25 11.25C11.25 11.3217 11.2517 11.3933 11.255 11.465C11.2583 11.5367 11.2631 11.6083 11.2692 11.68C11.5753 11.83 11.8586 12.0106 12.1192 12.2217C12.3797 12.4328 12.6125 12.6703 12.8175 12.9342C13.0225 13.1981 13.1967 13.4831 13.34 13.7892C13.4833 14.0947 13.5908 14.4136 13.6625 14.7458C14.0986 14.9153 14.5444 15 15 15Z" fill="#800080"/>
</g>
<defs>
<clipPath id="clip0_1361_14350">
<rect width="20" height="20" fill="white"/>
</clipPath>
</defs>
</svg>
