<svg width="1062" height="234" viewBox="0 0 1062 234" fill="none" xmlns="http://www.w3.org/2000/svg">
<path d="M147.84 4.39258V205.668" stroke="#EBEBEB"/>
<path d="M351.777 4.39258V205.668" stroke="#EBEBEB"/>
<path d="M453.746 4.39258V205.668" stroke="#EBEBEB"/>
<path d="M249.812 4.39258V205.668" stroke="#EBEBEB"/>
<path d="M554.297 4.39258V205.668" stroke="#EBEBEB"/>
<path d="M47.2891 4.39258V205.668" stroke="#EBEBEB"/>
<path d="M654.852 4.39258V205.668" stroke="#EBEBEB"/>
<path d="M858.785 4.39258V205.668" stroke="#EBEBEB"/>
<path d="M960.754 4.39258V205.668" stroke="#EBEBEB"/>
<path d="M756.816 4.39258V205.668" stroke="#EBEBEB"/>
<path d="M1061.3 4.39258V205.668" stroke="#EBEBEB"/>
<path d="M47.2891 205.668H1061.31" stroke="#EBEBEB"/>
<path d="M33.0141 164.281C33.0141 166.957 34.2981 168.733 36.4581 168.733C38.6061 168.733 39.8901 166.957 39.8901 164.281C39.8901 161.617 38.5821 159.817 36.4581 159.817C34.3221 159.817 33.0141 161.617 33.0141 164.281ZM33.8661 164.281C33.8661 162.037 34.8141 160.609 36.4581 160.609C38.1021 160.609 39.0501 162.037 39.0501 164.281C39.0501 166.513 38.1021 167.953 36.4581 167.953C34.8141 167.953 33.8661 166.513 33.8661 164.281Z" fill="#AAAAAA"/>
<path d="M47.2891 155.829H1061.31" stroke="#EBEBEB"/>
<path d="M37.0294 119.707C38.8294 119.707 40.0534 118.482 40.0534 116.754C40.0534 115.146 38.9494 113.862 37.1614 113.862C36.4894 113.862 35.8654 114.078 35.3854 114.462L36.0334 111.762H39.5614V110.97H35.4094L34.3774 115.29L35.0614 115.506C35.5294 114.99 36.2494 114.63 37.0414 114.63C38.3974 114.63 39.1774 115.578 39.1774 116.778C39.1774 118.05 38.3374 118.914 37.0414 118.914C35.8174 118.914 35.0614 118.17 35.0614 116.934H34.1974C34.1974 118.626 35.3014 119.707 37.0294 119.707Z" fill="#AAAAAA"/>
<path d="M47.2891 104.072H1061.31" stroke="#EBEBEB"/>
<path d="M30.4979 59.5089L30.477 67.3209L31.305 67.3306L31.3279 58.7386L28.7481 58.7083L28.746 59.4883L30.4979 59.5089ZM32.9841 63.0542C32.977 65.7302 34.2562 67.5213 36.416 67.5466C38.5639 67.5719 39.8525 65.8109 39.8597 63.135C39.8668 60.471 38.5636 58.6556 36.4398 58.6307C34.3039 58.6056 32.9912 60.3902 32.9841 63.0542ZM33.8361 63.0642C33.8421 60.8202 34.7938 59.4033 36.4377 59.4227C38.0816 59.442 39.0257 60.8811 39.0197 63.1251C39.0138 65.3571 38.062 66.7859 36.4181 66.7666C34.7742 66.7473 33.8301 65.2962 33.8361 63.0642Z" fill="#AAAAAA"/>
<path d="M47.2891 54.2334H1061.31" stroke="#EBEBEB"/>
<path d="M91.2844 220.272H92.5969V226.459C92.5969 227.019 92.4862 227.498 92.2646 227.895C92.0458 228.293 91.7376 228.597 91.3398 228.807C90.9421 229.015 90.4762 229.118 89.9421 229.118C89.4506 229.118 89.0089 229.029 88.6168 228.85C88.2276 228.671 87.9194 228.411 87.6921 228.07C87.4677 227.726 87.3555 227.309 87.3555 226.817H88.6637C88.6637 227.059 88.7191 227.267 88.8299 227.444C88.9435 227.62 89.0984 227.758 89.2944 227.857C89.4933 227.954 89.7205 228.002 89.9762 228.002C90.2546 228.002 90.4904 227.944 90.6836 227.827C90.8796 227.708 91.0288 227.533 91.131 227.303C91.2333 227.073 91.2844 226.792 91.2844 226.459V220.272ZM96.3161 229.144C95.9013 229.144 95.5263 229.067 95.1911 228.914C94.8558 228.758 94.5902 228.532 94.3942 228.236C94.201 227.941 94.1044 227.579 94.1044 227.15C94.1044 226.78 94.1754 226.476 94.3175 226.238C94.4595 225.999 94.6513 225.81 94.8928 225.671C95.1342 225.532 95.4041 225.427 95.7024 225.356C96.0007 225.285 96.3047 225.231 96.6143 225.194C97.0064 225.148 97.3246 225.111 97.5689 225.083C97.8132 225.052 97.9908 225.002 98.1016 224.934C98.2124 224.866 98.2678 224.755 98.2678 224.601V224.571C98.2678 224.199 98.1626 223.911 97.9524 223.706C97.745 223.502 97.4354 223.4 97.0234 223.4C96.5945 223.4 96.2564 223.495 96.0092 223.685C95.7649 223.873 95.5959 224.081 95.5021 224.312L94.3047 224.039C94.4467 223.641 94.6541 223.32 94.9268 223.076C95.2024 222.829 95.5192 222.65 95.8771 222.539C96.2351 222.425 96.6115 222.368 97.0064 222.368C97.2678 222.368 97.5447 222.4 97.8374 222.462C98.1328 222.522 98.4084 222.633 98.6641 222.794C98.9226 222.956 99.1342 223.188 99.299 223.489C99.4638 223.787 99.5462 224.175 99.5462 224.652V228.999H98.3018V228.104H98.2507C98.1683 228.269 98.0447 228.431 97.88 228.59C97.7152 228.749 97.5036 228.881 97.245 228.986C96.9865 229.091 96.6768 229.144 96.3161 229.144ZM96.593 228.121C96.9453 228.121 97.2464 228.052 97.4964 227.912C97.7493 227.773 97.9411 227.591 98.0717 227.367C98.2053 227.14 98.272 226.897 98.272 226.638V225.794C98.2266 225.84 98.1385 225.883 98.0078 225.922C97.88 225.959 97.7337 225.992 97.5689 226.02C97.4041 226.046 97.2436 226.07 97.0874 226.093C96.9311 226.113 96.8004 226.13 96.6953 226.144C96.4482 226.175 96.2223 226.228 96.0178 226.302C95.8161 226.375 95.6541 226.482 95.532 226.621C95.4126 226.758 95.353 226.939 95.353 227.167C95.353 227.482 95.4695 227.721 95.7024 227.883C95.9354 228.042 96.2322 228.121 96.593 228.121ZM102.517 225.113V228.999H101.243V222.454H102.466V223.519H102.547C102.698 223.172 102.934 222.894 103.255 222.684C103.578 222.473 103.986 222.368 104.478 222.368C104.924 222.368 105.314 222.462 105.65 222.65C105.985 222.834 106.245 223.11 106.429 223.476C106.614 223.843 106.706 224.296 106.706 224.836V228.999H105.432V224.989C105.432 224.515 105.309 224.144 105.061 223.877C104.814 223.607 104.475 223.472 104.043 223.472C103.748 223.472 103.485 223.536 103.255 223.664C103.027 223.792 102.847 223.979 102.713 224.226C102.583 224.471 102.517 224.766 102.517 225.113Z" fill="#AAAAAA"/>
<path d="M492.607 220.272H494.205L496.984 227.056H497.086L499.864 220.272H501.462V228.999H500.21V222.684H500.129L497.555 228.986H496.515L493.941 222.679H493.86V228.999H492.607V220.272ZM505.179 229.144C504.765 229.144 504.39 229.067 504.054 228.914C503.719 228.758 503.453 228.532 503.257 228.236C503.064 227.941 502.968 227.579 502.968 227.15C502.968 226.78 503.039 226.476 503.181 226.238C503.323 225.999 503.515 225.81 503.756 225.671C503.998 225.532 504.267 225.427 504.566 225.356C504.864 225.285 505.168 225.231 505.478 225.194C505.87 225.148 506.188 225.111 506.432 225.083C506.676 225.052 506.854 225.002 506.965 224.934C507.076 224.866 507.131 224.755 507.131 224.601V224.571C507.131 224.199 507.026 223.911 506.816 223.706C506.608 223.502 506.299 223.4 505.887 223.4C505.458 223.4 505.12 223.495 504.873 223.685C504.628 223.873 504.459 224.081 504.365 224.312L503.168 224.039C503.31 223.641 503.517 223.32 503.79 223.076C504.066 222.829 504.382 222.65 504.74 222.539C505.098 222.425 505.475 222.368 505.87 222.368C506.131 222.368 506.408 222.4 506.701 222.462C506.996 222.522 507.272 222.633 507.527 222.794C507.786 222.956 507.998 223.188 508.162 223.489C508.327 223.787 508.409 224.175 508.409 224.652V228.999H507.165V228.104H507.114C507.032 228.269 506.908 228.431 506.743 228.59C506.578 228.749 506.367 228.881 506.108 228.986C505.85 229.091 505.54 229.144 505.179 229.144ZM505.456 228.121C505.809 228.121 506.11 228.052 506.36 227.912C506.613 227.773 506.804 227.591 506.935 227.367C507.069 227.14 507.135 226.897 507.135 226.638V225.794C507.09 225.84 507.002 225.883 506.871 225.922C506.743 225.959 506.597 225.992 506.432 226.02C506.267 226.046 506.107 226.07 505.951 226.093C505.794 226.113 505.664 226.13 505.559 226.144C505.311 226.175 505.086 226.228 504.881 226.302C504.679 226.375 504.517 226.482 504.395 226.621C504.276 226.758 504.216 226.939 504.216 227.167C504.216 227.482 504.333 227.721 504.566 227.883C504.799 228.042 505.096 228.121 505.456 228.121ZM510.678 231.454C510.487 231.454 510.314 231.438 510.158 231.407C510.001 231.378 509.885 231.347 509.808 231.313L510.115 230.269C510.348 230.331 510.555 230.358 510.737 230.35C510.919 230.341 511.08 230.273 511.219 230.145C511.361 230.017 511.486 229.809 511.594 229.519L511.751 229.084L509.357 222.454H510.72L512.378 227.533H512.446L514.104 222.454H515.472L512.774 229.873C512.649 230.214 512.49 230.502 512.297 230.738C512.104 230.976 511.874 231.155 511.607 231.275C511.339 231.394 511.03 231.454 510.678 231.454Z" fill="#AAAAAA"/>
<path d="M290.344 220.272H291.942L294.72 227.056H294.822L297.601 220.272H299.199V228.999H297.946V222.684H297.865L295.291 228.986H294.251L291.677 222.679H291.596V228.999H290.344V220.272ZM302.916 229.144C302.501 229.144 302.126 229.067 301.791 228.914C301.455 228.758 301.19 228.532 300.994 228.236C300.801 227.941 300.704 227.579 300.704 227.15C300.704 226.78 300.775 226.476 300.917 226.238C301.059 225.999 301.251 225.81 301.492 225.671C301.734 225.532 302.004 225.427 302.302 225.356C302.6 225.285 302.904 225.231 303.214 225.194C303.606 225.148 303.924 225.111 304.169 225.083C304.413 225.052 304.59 225.002 304.701 224.934C304.812 224.866 304.867 224.755 304.867 224.601V224.571C304.867 224.199 304.762 223.911 304.552 223.706C304.345 223.502 304.035 223.4 303.623 223.4C303.194 223.4 302.856 223.495 302.609 223.685C302.365 223.873 302.195 224.081 302.102 224.312L300.904 224.039C301.046 223.641 301.254 223.32 301.526 223.076C301.802 222.829 302.119 222.65 302.477 222.539C302.835 222.425 303.211 222.368 303.606 222.368C303.867 222.368 304.144 222.4 304.437 222.462C304.732 222.522 305.008 222.633 305.264 222.794C305.522 222.956 305.734 223.188 305.899 223.489C306.063 223.787 306.146 224.175 306.146 224.652V228.999H304.901V228.104H304.85C304.768 228.269 304.644 228.431 304.48 228.59C304.315 228.749 304.103 228.881 303.845 228.986C303.586 229.091 303.276 229.144 302.916 229.144ZM303.193 228.121C303.545 228.121 303.846 228.052 304.096 227.912C304.349 227.773 304.541 227.591 304.671 227.367C304.805 227.14 304.872 226.897 304.872 226.638V225.794C304.826 225.84 304.738 225.883 304.607 225.922C304.48 225.959 304.333 225.992 304.169 226.02C304.004 226.046 303.843 226.07 303.687 226.093C303.531 226.113 303.4 226.13 303.295 226.144C303.048 226.175 302.822 226.228 302.617 226.302C302.416 226.375 302.254 226.482 302.132 226.621C302.012 226.758 301.953 226.939 301.953 227.167C301.953 227.482 302.069 227.721 302.302 227.883C302.535 228.042 302.832 228.121 303.193 228.121ZM307.843 228.999V222.454H309.074V223.493H309.143C309.262 223.141 309.472 222.864 309.773 222.662C310.077 222.458 310.421 222.356 310.805 222.356C310.884 222.356 310.978 222.358 311.086 222.364C311.197 222.37 311.283 222.377 311.346 222.385V223.604C311.295 223.59 311.204 223.574 311.073 223.557C310.942 223.537 310.812 223.527 310.681 223.527C310.38 223.527 310.111 223.591 309.876 223.719C309.643 223.844 309.458 224.019 309.322 224.243C309.185 224.465 309.117 224.718 309.117 225.002V228.999H307.843Z" fill="#AAAAAA"/>
<path d="M699.552 220.272H700.865V226.459C700.865 227.019 700.754 227.498 700.532 227.895C700.313 228.293 700.005 228.597 699.607 228.807C699.21 229.015 698.744 229.118 698.21 229.118C697.718 229.118 697.276 229.029 696.884 228.85C696.495 228.671 696.187 228.411 695.96 228.07C695.735 227.726 695.623 227.309 695.623 226.817H696.931C696.931 227.059 696.987 227.267 697.097 227.444C697.211 227.62 697.366 227.758 697.562 227.857C697.761 227.954 697.988 228.002 698.244 228.002C698.522 228.002 698.758 227.944 698.951 227.827C699.147 227.708 699.296 227.533 699.399 227.303C699.501 227.073 699.552 226.792 699.552 226.459V220.272ZM706.825 226.285V222.454H708.104V228.999H706.851V227.866H706.782C706.632 228.215 706.39 228.506 706.058 228.739C705.729 228.969 705.318 229.084 704.827 229.084C704.406 229.084 704.034 228.992 703.71 228.807C703.389 228.62 703.136 228.343 702.952 227.976C702.77 227.61 702.679 227.157 702.679 226.617V222.454H703.953V226.464C703.953 226.91 704.077 227.265 704.324 227.529C704.571 227.793 704.892 227.925 705.287 227.925C705.525 227.925 705.763 227.866 705.998 227.746C706.237 227.627 706.434 227.446 706.591 227.205C706.75 226.964 706.828 226.657 706.825 226.285ZM711.09 220.272V228.999H709.816V220.272H711.09ZM713.609 231.454C713.419 231.454 713.246 231.438 713.089 231.407C712.933 231.378 712.817 231.347 712.74 231.313L713.047 230.269C713.28 230.331 713.487 230.358 713.669 230.35C713.851 230.341 714.011 230.273 714.15 230.145C714.292 230.017 714.417 229.809 714.525 229.519L714.683 229.084L712.288 222.454H713.652L715.309 227.533H715.378L717.035 222.454H718.403L715.706 229.873C715.581 230.214 715.422 230.502 715.229 230.738C715.035 230.976 714.805 231.155 714.538 231.275C714.271 231.394 713.961 231.454 713.609 231.454Z" fill="#AAAAAA"/>
<path d="M188.89 228.999V220.272H194.302V221.405H190.207V224.064H193.915V225.194H190.207V228.999H188.89ZM198.16 229.131C197.515 229.131 196.96 228.993 196.494 228.718C196.031 228.439 195.673 228.049 195.42 227.546C195.17 227.04 195.045 226.448 195.045 225.769C195.045 225.098 195.17 224.508 195.42 223.996C195.673 223.485 196.025 223.086 196.477 222.799C196.931 222.512 197.463 222.368 198.07 222.368C198.44 222.368 198.798 222.429 199.144 222.552C199.491 222.674 199.802 222.866 200.078 223.127C200.353 223.388 200.57 223.728 200.73 224.145C200.889 224.56 200.968 225.064 200.968 225.658V226.11H195.765V225.155H199.72C199.72 224.82 199.651 224.523 199.515 224.265C199.379 224.003 199.187 223.797 198.94 223.647C198.695 223.496 198.409 223.421 198.079 223.421C197.721 223.421 197.409 223.509 197.142 223.685C196.877 223.858 196.673 224.086 196.528 224.367C196.386 224.645 196.315 224.948 196.315 225.275V226.02C196.315 226.458 196.392 226.83 196.545 227.137C196.701 227.444 196.919 227.678 197.197 227.84C197.475 227.999 197.801 228.079 198.173 228.079C198.414 228.079 198.634 228.044 198.833 227.976C199.032 227.905 199.204 227.8 199.349 227.661C199.494 227.522 199.605 227.35 199.681 227.145L200.887 227.363C200.791 227.718 200.617 228.029 200.367 228.296C200.12 228.56 199.809 228.766 199.434 228.914C199.062 229.059 198.637 229.131 198.16 229.131ZM202.484 228.999V220.272H203.758V223.515H203.835C203.909 223.378 204.015 223.221 204.155 223.042C204.294 222.863 204.487 222.706 204.734 222.573C204.981 222.437 205.308 222.368 205.714 222.368C206.243 222.368 206.714 222.502 207.129 222.769C207.544 223.036 207.869 223.421 208.105 223.924C208.344 224.427 208.463 225.032 208.463 225.739C208.463 226.446 208.345 227.053 208.109 227.559C207.873 228.062 207.55 228.449 207.138 228.722C206.726 228.992 206.256 229.127 205.727 229.127C205.329 229.127 205.004 229.06 204.751 228.927C204.501 228.793 204.305 228.637 204.163 228.458C204.021 228.279 203.912 228.12 203.835 227.981H203.729V228.999H202.484ZM203.733 225.726C203.733 226.187 203.8 226.59 203.933 226.937C204.067 227.283 204.26 227.554 204.513 227.75C204.765 227.944 205.075 228.04 205.442 228.04C205.822 228.04 206.14 227.939 206.396 227.738C206.652 227.533 206.845 227.256 206.976 226.907C207.109 226.557 207.176 226.164 207.176 225.726C207.176 225.294 207.111 224.907 206.98 224.563C206.852 224.219 206.659 223.948 206.4 223.749C206.145 223.55 205.825 223.451 205.442 223.451C205.072 223.451 204.76 223.546 204.504 223.736C204.251 223.927 204.059 224.192 203.929 224.533C203.798 224.874 203.733 225.272 203.733 225.726Z" fill="#AAAAAA"/>
<path d="M595.333 220.272H596.646V226.459C596.646 227.019 596.535 227.498 596.313 227.895C596.095 228.293 595.786 228.597 595.389 228.807C594.991 229.015 594.525 229.118 593.991 229.118C593.499 229.118 593.058 229.029 592.666 228.85C592.276 228.671 591.968 228.411 591.741 228.07C591.517 227.726 591.404 227.309 591.404 226.817H592.713C592.713 227.059 592.768 227.267 592.879 227.444C592.992 227.62 593.147 227.758 593.343 227.857C593.542 227.954 593.769 228.002 594.025 228.002C594.303 228.002 594.539 227.944 594.732 227.827C594.928 227.708 595.078 227.533 595.18 227.303C595.282 227.073 595.333 226.792 595.333 226.459V220.272ZM602.606 226.285V222.454H603.885V228.999H602.632V227.866H602.564C602.413 228.215 602.172 228.506 601.839 228.739C601.51 228.969 601.099 229.084 600.608 229.084C600.187 229.084 599.815 228.992 599.491 228.807C599.17 228.62 598.917 228.343 598.733 227.976C598.551 227.61 598.46 227.157 598.46 226.617V222.454H599.734V226.464C599.734 226.91 599.858 227.265 600.105 227.529C600.352 227.793 600.673 227.925 601.068 227.925C601.307 227.925 601.544 227.866 601.78 227.746C602.018 227.627 602.216 227.446 602.372 227.205C602.531 226.964 602.609 226.657 602.606 226.285ZM606.871 225.113V228.999H605.597V222.454H606.82V223.519H606.901C607.051 223.172 607.287 222.894 607.608 222.684C607.932 222.473 608.34 222.368 608.831 222.368C609.277 222.368 609.668 222.462 610.003 222.65C610.338 222.834 610.598 223.11 610.783 223.476C610.968 223.843 611.06 224.296 611.06 224.836V228.999H609.786V224.989C609.786 224.515 609.662 224.144 609.415 223.877C609.168 223.607 608.828 223.472 608.396 223.472C608.101 223.472 607.838 223.536 607.608 223.664C607.381 223.792 607.2 223.979 607.067 224.226C606.936 224.471 606.871 224.766 606.871 225.113ZM615.59 229.131C614.945 229.131 614.389 228.993 613.923 228.718C613.46 228.439 613.102 228.049 612.85 227.546C612.6 227.04 612.475 226.448 612.475 225.769C612.475 225.098 612.6 224.508 612.85 223.996C613.102 223.485 613.455 223.086 613.906 222.799C614.361 222.512 614.892 222.368 615.5 222.368C615.869 222.368 616.227 222.429 616.574 222.552C616.921 222.674 617.232 222.866 617.507 223.127C617.783 223.388 618 223.728 618.159 224.145C618.318 224.56 618.398 225.064 618.398 225.658V226.11H613.195V225.155H617.149C617.149 224.82 617.081 224.523 616.945 224.265C616.808 224.003 616.617 223.797 616.369 223.647C616.125 223.496 615.838 223.421 615.509 223.421C615.151 223.421 614.838 223.509 614.571 223.685C614.307 223.858 614.102 224.086 613.958 224.367C613.816 224.645 613.744 224.948 613.744 225.275V226.02C613.744 226.458 613.821 226.83 613.975 227.137C614.131 227.444 614.348 227.678 614.627 227.84C614.905 227.999 615.23 228.079 615.602 228.079C615.844 228.079 616.064 228.044 616.263 227.976C616.462 227.905 616.634 227.8 616.779 227.661C616.923 227.522 617.034 227.35 617.111 227.145L618.317 227.363C618.22 227.718 618.047 228.029 617.797 228.296C617.55 228.56 617.239 228.766 616.864 228.914C616.492 229.059 616.067 229.131 615.59 229.131Z" fill="#AAAAAA"/>
<path d="M393.981 228.999H392.583L395.724 220.272H397.245L400.386 228.999H398.988L396.521 221.857H396.453L393.981 228.999ZM394.216 225.581H398.75V226.689H394.216V225.581ZM401.544 231.454V222.454H402.788V223.515H402.895C402.969 223.378 403.075 223.221 403.214 223.042C403.354 222.863 403.547 222.706 403.794 222.573C404.041 222.437 404.368 222.368 404.774 222.368C405.303 222.368 405.774 222.502 406.189 222.769C406.604 223.036 406.929 223.421 407.165 223.924C407.403 224.427 407.523 225.032 407.523 225.739C407.523 226.446 407.405 227.053 407.169 227.559C406.933 228.062 406.609 228.449 406.197 228.722C405.786 228.992 405.315 229.127 404.787 229.127C404.389 229.127 404.064 229.06 403.811 228.927C403.561 228.793 403.365 228.637 403.223 228.458C403.081 228.279 402.972 228.12 402.895 227.981H402.818V231.454H401.544ZM402.793 225.726C402.793 226.187 402.859 226.59 402.993 226.937C403.126 227.283 403.32 227.554 403.572 227.75C403.825 227.944 404.135 228.04 404.501 228.04C404.882 228.04 405.2 227.939 405.456 227.738C405.712 227.533 405.905 227.256 406.036 226.907C406.169 226.557 406.236 226.164 406.236 225.726C406.236 225.294 406.17 224.907 406.04 224.563C405.912 224.219 405.719 223.948 405.46 223.749C405.205 223.55 404.885 223.451 404.501 223.451C404.132 223.451 403.82 223.546 403.564 223.736C403.311 223.927 403.119 224.192 402.989 224.533C402.858 224.874 402.793 225.272 402.793 225.726ZM408.95 228.999V222.454H410.182V223.493H410.25C410.369 223.141 410.58 222.864 410.881 222.662C411.185 222.458 411.528 222.356 411.912 222.356C411.991 222.356 412.085 222.358 412.193 222.364C412.304 222.37 412.391 222.377 412.453 222.385V223.604C412.402 223.59 412.311 223.574 412.18 223.557C412.05 223.537 411.919 223.527 411.788 223.527C411.487 223.527 411.219 223.591 410.983 223.719C410.75 223.844 410.565 224.019 410.429 224.243C410.293 224.465 410.224 224.718 410.224 225.002V228.999H408.95Z" fill="#AAAAAA"/>
<path d="M799.204 228.999H797.806L800.947 220.272H802.468L805.609 228.999H804.211L801.744 221.857H801.675L799.204 228.999ZM799.438 225.581H803.972V226.689H799.438V225.581ZM810.913 226.285V222.454H812.191V228.999H810.939V227.866H810.87C810.72 228.215 810.478 228.506 810.146 228.739C809.816 228.969 809.406 229.084 808.914 229.084C808.494 229.084 808.122 228.992 807.798 228.807C807.477 228.62 807.224 228.343 807.039 227.976C806.858 227.61 806.767 227.157 806.767 226.617V222.454H808.041V226.464C808.041 226.91 808.164 227.265 808.412 227.529C808.659 227.793 808.98 227.925 809.375 227.925C809.613 227.925 809.85 227.866 810.086 227.746C810.325 227.627 810.522 227.446 810.679 227.205C810.838 226.964 810.916 226.657 810.913 226.285ZM816.648 231.59C816.128 231.59 815.68 231.522 815.305 231.385C814.933 231.249 814.629 231.069 814.393 230.844C814.158 230.62 813.982 230.374 813.865 230.107L814.96 229.655C815.037 229.78 815.139 229.912 815.267 230.052C815.398 230.194 815.574 230.314 815.795 230.414C816.02 230.513 816.308 230.563 816.661 230.563C817.143 230.563 817.543 230.445 817.858 230.209C818.173 229.976 818.331 229.604 818.331 229.093V227.806H818.25C818.173 227.945 818.063 228.1 817.918 228.27C817.776 228.441 817.58 228.589 817.33 228.714C817.08 228.839 816.754 228.901 816.354 228.901C815.837 228.901 815.371 228.78 814.956 228.539C814.544 228.294 814.217 227.935 813.976 227.461C813.737 226.983 813.618 226.397 813.618 225.701C813.618 225.005 813.736 224.408 813.972 223.911C814.21 223.414 814.537 223.033 814.952 222.769C815.366 222.502 815.837 222.368 816.362 222.368C816.768 222.368 817.097 222.437 817.347 222.573C817.597 222.706 817.791 222.863 817.93 223.042C818.072 223.221 818.182 223.378 818.259 223.515H818.352V222.454H819.601V229.144C819.601 229.706 819.47 230.168 819.209 230.529C818.947 230.89 818.594 231.157 818.148 231.33C817.705 231.503 817.205 231.59 816.648 231.59ZM816.635 227.844C817.001 227.844 817.311 227.759 817.564 227.589C817.82 227.415 818.013 227.168 818.143 226.847C818.277 226.523 818.344 226.135 818.344 225.684C818.344 225.243 818.278 224.856 818.148 224.52C818.017 224.185 817.825 223.924 817.572 223.736C817.32 223.546 817.007 223.451 816.635 223.451C816.251 223.451 815.932 223.55 815.676 223.749C815.42 223.945 815.227 224.212 815.097 224.55C814.969 224.888 814.905 225.266 814.905 225.684C814.905 226.113 814.97 226.489 815.101 226.813C815.232 227.137 815.425 227.39 815.68 227.571C815.939 227.753 816.257 227.844 816.635 227.844Z" fill="#AAAAAA"/>
<path d="M902.619 222.564C902.574 222.161 902.386 221.848 902.057 221.627C901.727 221.402 901.312 221.29 900.812 221.29C900.454 221.29 900.145 221.347 899.883 221.461C899.622 221.571 899.419 221.725 899.274 221.921C899.132 222.114 899.061 222.334 899.061 222.581C899.061 222.789 899.109 222.968 899.206 223.118C899.305 223.269 899.434 223.395 899.594 223.498C899.756 223.597 899.929 223.681 900.113 223.749C900.298 223.814 900.476 223.868 900.646 223.911L901.498 224.133C901.777 224.201 902.062 224.293 902.355 224.41C902.648 224.526 902.919 224.679 903.169 224.87C903.419 225.06 903.621 225.296 903.774 225.577C903.93 225.858 904.008 226.195 904.008 226.587C904.008 227.081 903.881 227.52 903.625 227.904C903.372 228.287 903.004 228.59 902.521 228.812C902.041 229.033 901.46 229.144 900.778 229.144C900.125 229.144 899.559 229.04 899.082 228.833C898.605 228.625 898.231 228.331 897.961 227.951C897.692 227.567 897.542 227.113 897.514 226.587H898.835C898.861 226.902 898.963 227.165 899.142 227.375C899.324 227.583 899.555 227.738 899.836 227.84C900.121 227.939 900.432 227.989 900.77 227.989C901.142 227.989 901.473 227.931 901.763 227.814C902.055 227.695 902.285 227.53 902.453 227.32C902.621 227.107 902.704 226.858 902.704 226.574C902.704 226.316 902.631 226.104 902.483 225.939C902.338 225.775 902.14 225.638 901.89 225.53C901.643 225.422 901.363 225.327 901.051 225.245L900.02 224.964C899.321 224.773 898.767 224.493 898.358 224.124C897.952 223.755 897.748 223.266 897.748 222.658C897.748 222.155 897.885 221.716 898.157 221.341C898.43 220.966 898.8 220.675 899.265 220.468C899.731 220.258 900.257 220.152 900.842 220.152C901.433 220.152 901.954 220.256 902.406 220.464C902.861 220.671 903.219 220.956 903.48 221.32C903.741 221.681 903.878 222.096 903.889 222.564H902.619ZM908.301 229.131C907.656 229.131 907.1 228.993 906.634 228.718C906.171 228.439 905.813 228.049 905.561 227.546C905.311 227.04 905.186 226.448 905.186 225.769C905.186 225.098 905.311 224.508 905.561 223.996C905.813 223.485 906.166 223.086 906.617 222.799C907.072 222.512 907.603 222.368 908.211 222.368C908.58 222.368 908.938 222.429 909.285 222.552C909.632 222.674 909.943 222.866 910.218 223.127C910.494 223.388 910.711 223.728 910.87 224.145C911.029 224.56 911.109 225.064 911.109 225.658V226.11H905.906V225.155H909.86C909.86 224.82 909.792 224.523 909.656 224.265C909.519 224.003 909.328 223.797 909.08 223.647C908.836 223.496 908.549 223.421 908.22 223.421C907.862 223.421 907.549 223.509 907.282 223.685C907.018 223.858 906.813 224.086 906.669 224.367C906.526 224.645 906.455 224.948 906.455 225.275V226.02C906.455 226.458 906.532 226.83 906.686 227.137C906.842 227.444 907.059 227.678 907.338 227.84C907.616 227.999 907.941 228.079 908.313 228.079C908.555 228.079 908.775 228.044 908.974 227.976C909.173 227.905 909.345 227.8 909.49 227.661C909.634 227.522 909.745 227.35 909.822 227.145L911.028 227.363C910.931 227.718 910.758 228.029 910.508 228.296C910.261 228.56 909.95 228.766 909.575 228.914C909.203 229.059 908.778 229.131 908.301 229.131ZM912.523 231.454V222.454H913.767V223.515H913.873C913.947 223.378 914.054 223.221 914.193 223.042C914.332 222.863 914.525 222.706 914.773 222.573C915.02 222.437 915.346 222.368 915.753 222.368C916.281 222.368 916.753 222.502 917.167 222.769C917.582 223.036 917.907 223.421 918.143 223.924C918.382 224.427 918.501 225.032 918.501 225.739C918.501 226.446 918.383 227.053 918.148 227.559C917.912 228.062 917.588 228.449 917.176 228.722C916.764 228.992 916.294 229.127 915.765 229.127C915.368 229.127 915.042 229.06 914.79 228.927C914.54 228.793 914.344 228.637 914.202 228.458C914.059 228.279 913.95 228.12 913.873 227.981H913.797V231.454H912.523ZM913.771 225.726C913.771 226.187 913.838 226.59 913.971 226.937C914.105 227.283 914.298 227.554 914.551 227.75C914.804 227.944 915.113 228.04 915.48 228.04C915.861 228.04 916.179 227.939 916.434 227.738C916.69 227.533 916.883 227.256 917.014 226.907C917.148 226.557 917.214 226.164 917.214 225.726C917.214 225.294 917.149 224.907 917.018 224.563C916.89 224.219 916.697 223.948 916.439 223.749C916.183 223.55 915.863 223.451 915.48 223.451C915.111 223.451 914.798 223.546 914.542 223.736C914.29 223.927 914.098 224.192 913.967 224.533C913.836 224.874 913.771 225.272 913.771 225.726ZM922.984 222.454V223.476H919.409V222.454H922.984ZM920.368 220.885H921.642V227.077C921.642 227.324 921.679 227.51 921.753 227.635C921.827 227.758 921.922 227.841 922.038 227.887C922.157 227.929 922.287 227.951 922.426 227.951C922.528 227.951 922.618 227.944 922.694 227.929C922.771 227.915 922.831 227.904 922.873 227.895L923.104 228.948C923.03 228.976 922.925 229.005 922.788 229.033C922.652 229.064 922.481 229.081 922.277 229.084C921.942 229.09 921.629 229.03 921.339 228.905C921.05 228.78 920.815 228.587 920.636 228.326C920.457 228.064 920.368 227.736 920.368 227.341V220.885Z" fill="#AAAAAA"/>
<path d="M1009.75 224.635C1009.75 225.567 1009.58 226.368 1009.24 227.039C1008.9 227.706 1008.43 228.221 1007.84 228.581C1007.24 228.939 1006.57 229.118 1005.82 229.118C1005.06 229.118 1004.39 228.939 1003.8 228.581C1003.2 228.221 1002.74 227.705 1002.4 227.035C1002.06 226.364 1001.89 225.564 1001.89 224.635C1001.89 223.704 1002.06 222.904 1002.4 222.236C1002.74 221.566 1003.2 221.052 1003.8 220.694C1004.39 220.333 1005.06 220.152 1005.82 220.152C1006.57 220.152 1007.24 220.333 1007.84 220.694C1008.43 221.052 1008.9 221.566 1009.24 222.236C1009.58 222.904 1009.75 223.704 1009.75 224.635ZM1008.44 224.635C1008.44 223.925 1008.33 223.327 1008.1 222.841C1007.87 222.353 1007.56 221.983 1007.16 221.733C1006.77 221.481 1006.32 221.354 1005.82 221.354C1005.32 221.354 1004.87 221.481 1004.47 221.733C1004.08 221.983 1003.77 222.353 1003.54 222.841C1003.31 223.327 1003.19 223.925 1003.19 224.635C1003.19 225.346 1003.31 225.945 1003.54 226.434C1003.77 226.919 1004.08 227.289 1004.47 227.542C1004.87 227.792 1005.32 227.917 1005.82 227.917C1006.32 227.917 1006.77 227.792 1007.16 227.542C1007.56 227.289 1007.87 226.919 1008.1 226.434C1008.33 225.945 1008.44 225.346 1008.44 224.635ZM1014.05 229.131C1013.41 229.131 1012.87 228.988 1012.41 228.701C1011.95 228.411 1011.6 228.012 1011.36 227.503C1011.12 226.995 1010.99 226.412 1010.99 225.756C1010.99 225.091 1011.12 224.505 1011.37 223.996C1011.62 223.485 1011.97 223.086 1012.43 222.799C1012.88 222.512 1013.42 222.368 1014.03 222.368C1014.53 222.368 1014.97 222.461 1015.36 222.645C1015.75 222.827 1016.07 223.083 1016.3 223.412C1016.55 223.742 1016.69 224.127 1016.73 224.567H1015.49C1015.43 224.26 1015.27 223.996 1015.03 223.775C1014.78 223.553 1014.46 223.442 1014.05 223.442C1013.7 223.442 1013.39 223.536 1013.12 223.723C1012.86 223.908 1012.65 224.172 1012.5 224.516C1012.35 224.857 1012.28 225.26 1012.28 225.726C1012.28 226.204 1012.35 226.616 1012.5 226.962C1012.64 227.309 1012.85 227.577 1013.11 227.767C1013.38 227.958 1013.69 228.053 1014.05 228.053C1014.3 228.053 1014.51 228.009 1014.71 227.921C1014.91 227.83 1015.08 227.701 1015.21 227.533C1015.34 227.366 1015.44 227.164 1015.49 226.928H1016.73C1016.69 227.351 1016.55 227.729 1016.32 228.062C1016.09 228.394 1015.78 228.655 1015.4 228.846C1015.01 229.036 1014.56 229.131 1014.05 229.131ZM1021.15 222.454V223.476H1017.58V222.454H1021.15ZM1018.54 220.885H1019.81V227.077C1019.81 227.324 1019.85 227.51 1019.92 227.635C1019.99 227.758 1020.09 227.841 1020.21 227.887C1020.33 227.929 1020.45 227.951 1020.59 227.951C1020.7 227.951 1020.79 227.944 1020.86 227.929C1020.94 227.915 1021 227.904 1021.04 227.895L1021.27 228.948C1021.2 228.976 1021.09 229.005 1020.96 229.033C1020.82 229.064 1020.65 229.081 1020.44 229.084C1020.11 229.09 1019.8 229.03 1019.51 228.905C1019.22 228.78 1018.98 228.587 1018.8 228.326C1018.63 228.064 1018.54 227.736 1018.54 227.341V220.885Z" fill="#AAAAAA"/>
<path d="M30.9573 10.4556V18.2676H31.7853V9.67558H29.2053V10.4556H30.9573ZM36.2496 18.4116C38.0496 18.4116 39.2736 17.1876 39.2736 15.4596C39.2736 13.8516 38.1696 12.5676 36.3816 12.5676C35.7096 12.5676 35.0856 12.7836 34.6056 13.1676L35.2536 10.4676H38.7816V9.67558H34.6296L33.5976 13.9956L34.2816 14.2116C34.7496 13.6956 35.4696 13.3356 36.2616 13.3356C37.6176 13.3356 38.3976 14.2836 38.3976 15.4836C38.3976 16.7556 37.5576 17.6196 36.2616 17.6196C35.0376 17.6196 34.2816 16.8756 34.2816 15.6396H33.4176C33.4176 17.3316 34.5216 18.4116 36.2496 18.4116Z" fill="#AAAAAA"/>
<path d="M47.2891 4.39258H1061.31" stroke="#EBEBEB"/>
<g filter="url(#filter0_dd_1067_21406)">
<path fill-rule="evenodd" clip-rule="evenodd" d="M912.914 113.586C912.133 114.367 910.867 114.367 910.086 113.586L903.5 107L919.5 107L912.914 113.586Z" fill="#14142B"/>
<rect x="0.5" y="-0.5" width="125" height="102" rx="3.5" transform="matrix(1 -8.74228e-08 -8.74228e-08 -1 848.5 106)" fill="black"/>
<rect x="0.5" y="-0.5" width="125" height="102" rx="3.5" transform="matrix(1 -8.74228e-08 -8.74228e-08 -1 848.5 106)" stroke="#14142B"/>
<path fill-rule="evenodd" clip-rule="evenodd" d="M867.25 83.9998C867.25 82.7571 868.257 81.7498 869.5 81.7498C870.743 81.7498 871.75 82.7571 871.75 83.9998C871.75 85.2424 870.743 86.2498 869.5 86.2498C868.257 86.2498 867.25 85.2424 867.25 83.9998Z" fill="#D9DBE9"/>
<path d="M883.361 87.9998L883.361 79.2725L889.037 79.2725L889.037 80.5978L884.942 80.5978L884.942 82.9671L888.743 82.9671L888.743 84.2924L884.942 84.2924L884.942 86.6745L889.071 86.6745L889.071 87.9998L883.361 87.9998ZM891.843 81.4543L893.164 83.8705L894.506 81.4543L896.138 81.4543L894.165 84.727L896.173 87.9998L894.549 87.9998L893.164 85.6432L891.792 87.9998L890.156 87.9998L892.15 84.727L890.207 81.4543L891.843 81.4543ZM897.332 90.4543L897.332 81.4543L898.849 81.4543L898.849 82.5367L898.938 82.5367C899.018 82.3776 899.13 82.2086 899.275 82.0296C899.42 81.8478 899.616 81.6929 899.863 81.5651C900.11 81.4344 900.425 81.3691 900.809 81.3691C901.315 81.3691 901.771 81.4983 902.177 81.7569C902.586 82.0125 902.91 82.3918 903.148 82.8946C903.39 83.3946 903.511 84.0083 903.511 84.7356C903.511 85.4543 903.393 86.0651 903.157 86.5679C902.921 87.0708 902.6 87.4543 902.194 87.7185C901.788 87.9827 901.327 88.1148 900.813 88.1148C900.438 88.1148 900.127 88.0523 899.88 87.9273C899.633 87.8023 899.434 87.6517 899.283 87.4756C899.136 87.2966 899.021 87.1276 898.938 86.9685L898.874 86.9685L898.874 90.4543L897.332 90.4543ZM898.844 84.727C898.844 85.1503 898.904 85.5211 899.023 85.8392C899.146 86.1574 899.32 86.406 899.548 86.585C899.778 86.7611 900.056 86.8492 900.383 86.8492C900.724 86.8492 901.009 86.7583 901.239 86.5765C901.469 86.3918 901.643 86.1404 901.759 85.8222C901.879 85.5012 901.938 85.1361 901.938 84.727C901.938 84.3208 901.88 83.96 901.763 83.6446C901.647 83.3293 901.474 83.0821 901.244 82.9032C901.013 82.7242 900.727 82.6347 900.383 82.6347C900.053 82.6347 899.773 82.7213 899.543 82.8946C899.313 83.0679 899.138 83.3108 899.019 83.6233C898.903 83.9358 898.844 84.3037 898.844 84.727ZM904.832 87.9998L904.832 81.4543L906.374 81.4543L906.374 87.9998L904.832 87.9998ZM905.607 80.5253C905.363 80.5253 905.153 80.4444 904.977 80.2824C904.8 80.1177 904.712 79.9202 904.712 79.6901C904.712 79.4571 904.8 79.2597 904.977 79.0978C905.153 78.933 905.363 78.8506 905.607 78.8506C905.854 78.8506 906.065 78.933 906.238 79.0978C906.414 79.2597 906.502 79.4571 906.502 79.6901C906.502 79.9202 906.414 80.1177 906.238 80.2824C906.065 80.4444 905.854 80.5253 905.607 80.5253ZM907.961 87.9998L907.961 81.4543L909.456 81.4543L909.456 82.5452L909.525 82.5452C909.644 82.1674 909.848 81.8762 910.138 81.6716C910.431 81.4642 910.765 81.3606 911.14 81.3606C911.225 81.3606 911.32 81.3648 911.425 81.3733C911.533 81.379 911.623 81.389 911.694 81.4032L911.694 82.8222C911.628 82.7995 911.525 82.7796 911.382 82.7625C911.243 82.7427 911.108 82.7327 910.978 82.7327C910.696 82.7327 910.444 82.7938 910.219 82.9159C909.998 83.0353 909.823 83.2015 909.695 83.4145C909.567 83.6276 909.503 83.8733 909.503 84.1517L909.503 87.9998L907.961 87.9998ZM915.347 88.1276C914.69 88.1276 914.124 87.9912 913.646 87.7185C913.172 87.4429 912.807 87.0537 912.551 86.5509C912.295 86.0452 912.168 85.45 912.168 84.7654C912.168 84.0921 912.295 83.5012 912.551 82.9927C912.81 82.4813 913.17 82.0836 913.634 81.7995C914.097 81.5125 914.641 81.3691 915.266 81.3691C915.669 81.3691 916.05 81.4344 916.408 81.5651C916.768 81.6929 917.087 81.8918 917.362 82.1617C917.641 82.4316 917.859 82.7753 918.018 83.1929C918.178 83.6077 918.257 84.102 918.257 84.6759L918.257 85.1489L912.892 85.1489L912.892 84.1091L916.778 84.1091C916.776 83.8137 916.712 83.5509 916.587 83.3208C916.462 83.0878 916.287 82.9046 916.063 82.7711C915.841 82.6375 915.582 82.5708 915.287 82.5708C914.972 82.5708 914.695 82.6475 914.456 82.8009C914.217 82.9515 914.031 83.1503 913.898 83.3975C913.767 83.6418 913.7 83.9103 913.697 84.2029L913.697 85.1106C913.697 85.4912 913.767 85.8179 913.906 86.0907C914.045 86.3606 914.24 86.5679 914.49 86.7128C914.74 86.8549 915.033 86.9259 915.368 86.9259C915.592 86.9259 915.795 86.8946 915.977 86.8321C916.159 86.7668 916.317 86.6716 916.45 86.5466C916.584 86.4216 916.685 86.2668 916.753 86.0821L918.193 86.2441C918.102 86.6248 917.929 86.9571 917.673 87.2412C917.42 87.5225 917.097 87.7412 916.702 87.8975C916.307 88.0509 915.855 88.1276 915.347 88.1276ZM921.991 88.1148C921.477 88.1148 921.017 87.9827 920.61 87.7185C920.204 87.4543 919.883 87.0708 919.647 86.5679C919.412 86.0651 919.294 85.4543 919.294 84.7356C919.294 84.0083 919.413 83.3946 919.652 82.8946C919.893 82.3918 920.218 82.0125 920.627 81.7569C921.037 81.4983 921.493 81.3691 921.995 81.3691C922.379 81.3691 922.694 81.4344 922.941 81.5651C923.189 81.6929 923.385 81.8478 923.529 82.0296C923.674 82.2086 923.787 82.3776 923.866 82.5367L923.93 82.5367L923.93 79.2725L925.477 79.2725L925.477 87.9998L923.96 87.9998L923.96 86.9685L923.866 86.9685C923.787 87.1276 923.672 87.2966 923.521 87.4756C923.37 87.6517 923.172 87.8023 922.924 87.9273C922.677 88.0523 922.366 88.1148 921.991 88.1148ZM922.422 86.8492C922.748 86.8492 923.027 86.7611 923.257 86.585C923.487 86.406 923.662 86.1574 923.781 85.8392C923.9 85.5211 923.96 85.1503 923.96 84.727C923.96 84.3037 923.9 83.9358 923.781 83.6233C923.664 83.3108 923.491 83.0679 923.261 82.8946C923.034 82.7213 922.754 82.6347 922.422 82.6347C922.078 82.6347 921.791 82.7242 921.561 82.9032C921.331 83.0821 921.157 83.3293 921.041 83.6446C920.924 83.96 920.866 84.3208 920.866 84.727C920.866 85.1361 920.924 85.5012 921.041 85.8222C921.16 86.1404 921.335 86.3918 921.565 86.5765C921.798 86.7583 922.083 86.8492 922.422 86.8492Z" fill="white"/>
<path d="M950.472 79.2725L950.472 87.9998L949.415 87.9998L949.415 80.3804L949.364 80.3804L947.233 81.7952L947.233 80.7213L949.415 79.2725L950.472 79.2725ZM955.828 88.1191C955.186 88.1191 954.639 87.9444 954.188 87.5949C953.736 87.2427 953.391 86.7327 953.152 86.0651C952.913 85.3946 952.794 84.585 952.794 83.6361C952.794 82.6929 952.913 81.8875 953.152 81.2199C953.393 80.5495 953.74 80.0381 954.192 79.6858C954.646 79.3307 955.192 79.1532 955.828 79.1532C956.464 79.1532 957.009 79.3307 957.46 79.6858C957.915 80.0381 958.261 80.5495 958.5 81.2199C958.741 81.8875 958.862 82.6929 958.862 83.6361C958.862 84.585 958.743 85.3946 958.504 86.0651C958.266 86.7327 957.92 87.2427 957.469 87.5949C957.017 87.9444 956.47 88.1191 955.828 88.1191ZM955.828 87.1816C956.464 87.1816 956.959 86.8748 957.311 86.2611C957.663 85.6475 957.839 84.7725 957.839 83.6361C957.839 82.8804 957.759 82.237 957.597 81.7057C957.438 81.1745 957.207 80.7696 956.906 80.4912C956.608 80.2128 956.249 80.0736 955.828 80.0736C955.197 80.0736 954.705 80.3847 954.349 81.0069C953.994 81.6262 953.817 82.5026 953.817 83.6361C953.817 84.3918 953.896 85.0338 954.055 85.5623C954.214 86.0907 954.443 86.4927 954.741 86.7682C955.043 87.0438 955.405 87.1816 955.828 87.1816Z" fill="white"/>
<path fill-rule="evenodd" clip-rule="evenodd" d="M867.25 62.9998C867.25 61.7571 868.257 60.7498 869.5 60.7498C870.743 60.7498 871.75 61.7571 871.75 62.9998C871.75 64.2424 870.743 65.2498 869.5 65.2498C868.257 65.2498 867.25 64.2424 867.25 62.9998Z" fill="#D9DBE9"/>
<path d="M890.831 61.2171L889.237 61.2171C889.192 60.9557 889.108 60.7242 888.986 60.5225C888.864 60.3179 888.712 60.1446 888.53 60.0026C888.348 59.8606 888.141 59.754 887.908 59.683C887.678 59.6091 887.429 59.5722 887.162 59.5722C886.688 59.5722 886.267 59.6915 885.901 59.9302C885.534 60.1659 885.247 60.5125 885.04 60.9699C884.832 61.4245 884.729 61.9799 884.729 62.6361C884.729 63.3037 884.832 63.8662 885.04 64.3236C885.25 64.7782 885.537 65.1219 885.901 65.3549C886.267 65.585 886.686 65.7 887.158 65.7C887.419 65.7 887.663 65.6659 887.891 65.5978C888.121 65.5267 888.327 65.4231 888.509 65.2867C888.693 65.1503 888.848 64.9827 888.973 64.7838C889.101 64.585 889.189 64.3577 889.237 64.102L890.831 64.1106C890.771 64.5253 890.642 64.9145 890.443 65.2782C890.247 65.6418 889.99 65.9628 889.672 66.2412C889.354 66.5168 888.982 66.7327 888.555 66.889C888.129 67.0424 887.656 67.1191 887.136 67.1191C886.369 67.1191 885.685 66.9415 885.082 66.5864C884.48 66.2313 884.006 65.7185 883.659 65.0481C883.313 64.3776 883.139 63.5736 883.139 62.6361C883.139 61.6958 883.314 60.8918 883.663 60.2242C884.013 59.5537 884.489 59.0409 885.091 58.6858C885.693 58.3307 886.375 58.1532 887.136 58.1532C887.622 58.1532 888.074 58.2213 888.491 58.3577C888.909 58.4941 889.281 58.6944 889.608 58.9586C889.935 59.2199 890.203 59.5409 890.413 59.9216C890.626 60.2995 890.766 60.7313 890.831 61.2171ZM894.094 67.1319C893.679 67.1319 893.306 67.058 892.973 66.9103C892.644 66.7597 892.382 66.5381 892.189 66.2455C891.999 65.9529 891.904 65.5921 891.904 65.1631C891.904 64.7938 891.972 64.4884 892.108 64.2469C892.245 64.0054 892.431 63.8123 892.667 63.6674C892.902 63.5225 893.168 63.4131 893.463 63.3392C893.762 63.2625 894.07 63.2071 894.388 63.1731C894.772 63.1333 895.083 63.0978 895.321 63.0665C895.56 63.0324 895.733 62.9813 895.841 62.9131C895.952 62.8421 896.007 62.7327 896.007 62.585L896.007 62.5594C896.007 62.2384 895.912 61.9898 895.722 61.8137C895.532 61.6375 895.257 61.5495 894.9 61.5495C894.522 61.5495 894.222 61.6319 894 61.7966C893.782 61.9614 893.634 62.156 893.557 62.3804L892.117 62.1759C892.23 61.7782 892.418 61.4458 892.679 61.1787C892.941 60.9088 893.26 60.7071 893.638 60.5736C894.016 60.4373 894.434 60.3691 894.891 60.3691C895.206 60.3691 895.52 60.406 895.833 60.4799C896.145 60.5537 896.431 60.6759 896.689 60.8463C896.948 61.014 897.155 61.2427 897.311 61.5324C897.471 61.8222 897.55 62.1844 897.55 62.6191L897.55 66.9998L896.067 66.9998L896.067 66.1006L896.016 66.1006C895.922 66.2824 895.79 66.4529 895.62 66.612C895.452 66.7682 895.24 66.8946 894.985 66.9912C894.732 67.085 894.435 67.1319 894.094 67.1319ZM894.495 65.9983C894.804 65.9983 895.073 65.9373 895.3 65.8151C895.527 65.6901 895.702 65.5253 895.824 65.3208C895.949 65.1162 896.012 64.8932 896.012 64.6517L896.012 63.8804C895.963 63.9202 895.881 63.9571 895.765 63.9912C895.651 64.0253 895.523 64.0552 895.381 64.0807C895.239 64.1063 895.098 64.129 894.959 64.1489C894.82 64.1688 894.699 64.1858 894.597 64.2C894.367 64.2313 894.161 64.2824 893.979 64.3534C893.797 64.4245 893.654 64.5239 893.549 64.6517C893.444 64.7767 893.391 64.9387 893.391 65.1375C893.391 65.4216 893.495 65.6361 893.702 65.781C893.909 65.9259 894.174 65.9983 894.495 65.9983ZM900.644 63.1645L900.644 66.9998L899.101 66.9998L899.101 60.4543L900.576 60.4543L900.576 61.5665L900.652 61.5665C900.803 61.2 901.043 60.9088 901.373 60.6929C901.705 60.477 902.115 60.3691 902.604 60.3691C903.056 60.3691 903.449 60.4657 903.784 60.6588C904.123 60.852 904.384 61.1319 904.569 61.4983C904.756 61.8648 904.848 62.3094 904.846 62.8321L904.846 66.9998L903.303 66.9998L903.303 63.0708C903.303 62.6333 903.189 62.2909 902.962 62.0438C902.738 61.7966 902.426 61.6731 902.029 61.6731C901.759 61.6731 901.519 61.7327 901.309 61.852C901.101 61.9685 900.938 62.1375 900.819 62.3591C900.702 62.5807 900.644 62.8492 900.644 63.1645ZM909.269 67.1276C908.615 67.1276 908.054 66.9841 907.586 66.6972C907.12 66.4103 906.76 66.014 906.507 65.5083C906.257 64.9998 906.132 64.4145 906.132 63.7526C906.132 63.0878 906.26 62.5012 906.516 61.9927C906.772 61.4813 907.132 61.0836 907.598 60.7995C908.067 60.5125 908.621 60.3691 909.26 60.3691C909.792 60.3691 910.262 60.4671 910.671 60.6631C911.083 60.8563 911.411 61.1304 911.655 61.4856C911.9 61.8378 912.039 62.2498 912.073 62.7213L910.598 62.7213C910.539 62.406 910.397 62.1432 910.172 61.933C909.951 61.7199 909.654 61.6134 909.282 61.6134C908.966 61.6134 908.689 61.6986 908.451 61.8691C908.212 62.0367 908.026 62.2782 907.892 62.5935C907.762 62.9088 907.696 63.2867 907.696 63.727C907.696 64.1731 907.762 64.5566 907.892 64.8776C908.023 65.1958 908.206 65.4415 908.442 65.6148C908.681 65.7853 908.961 65.8705 909.282 65.8705C909.509 65.8705 909.712 65.8279 909.891 65.7427C910.073 65.6546 910.225 65.5282 910.347 65.3634C910.469 65.1986 910.553 64.9983 910.598 64.7625L912.073 64.7625C912.036 65.2256 911.9 65.6361 911.664 65.9941C911.428 66.3492 911.107 66.6276 910.701 66.8293C910.294 67.0282 909.817 67.1276 909.269 67.1276ZM916.237 67.1276C915.581 67.1276 915.014 66.9912 914.537 66.7185C914.063 66.4429 913.697 66.0537 913.442 65.5509C913.186 65.0452 913.058 64.45 913.058 63.7654C913.058 63.0921 913.186 62.5012 913.442 61.9927C913.7 61.4813 914.061 61.0836 914.524 60.7995C914.987 60.5125 915.531 60.3691 916.156 60.3691C916.56 60.3691 916.94 60.4344 917.298 60.5651C917.659 60.6929 917.977 60.8918 918.253 61.1617C918.531 61.4316 918.75 61.7753 918.909 62.1929C919.068 62.6077 919.148 63.102 919.148 63.6759L919.148 64.1489L913.783 64.1489L913.783 63.1091L917.669 63.1091C917.666 62.8137 917.602 62.5509 917.477 62.3208C917.352 62.0878 917.178 61.9046 916.953 61.7711C916.732 61.6375 916.473 61.5708 916.178 61.5708C915.862 61.5708 915.585 61.6475 915.347 61.8009C915.108 61.9515 914.922 62.1503 914.788 62.3975C914.658 62.6418 914.591 62.9103 914.588 63.2029L914.588 64.1106C914.588 64.4912 914.658 64.8179 914.797 65.0907C914.936 65.3606 915.131 65.5679 915.381 65.7128C915.631 65.8549 915.923 65.9259 916.259 65.9259C916.483 65.9259 916.686 65.8946 916.868 65.8321C917.05 65.7668 917.207 65.6716 917.341 65.5466C917.474 65.4216 917.575 65.2668 917.643 65.0821L919.084 65.2441C918.993 65.6248 918.82 65.9571 918.564 66.2412C918.311 66.5225 917.987 66.7412 917.592 66.8975C917.197 67.0509 916.746 67.1276 916.237 67.1276ZM921.995 58.2725L921.995 66.9998L920.453 66.9998L920.453 58.2725L921.995 58.2725ZM926.479 67.1276C925.823 67.1276 925.256 66.9912 924.779 66.7185C924.305 66.4429 923.94 66.0537 923.684 65.5509C923.428 65.0452 923.3 64.45 923.3 63.7654C923.3 63.0921 923.428 62.5012 923.684 61.9927C923.942 61.4813 924.303 61.0836 924.766 60.7995C925.229 60.5125 925.773 60.3691 926.398 60.3691C926.802 60.3691 927.183 60.4344 927.54 60.5651C927.901 60.6929 928.219 60.8918 928.495 61.1617C928.773 61.4316 928.992 61.7753 929.151 62.1929C929.31 62.6077 929.39 63.102 929.39 63.6759L929.39 64.1489L924.025 64.1489L924.025 63.1091L927.911 63.1091C927.908 62.8137 927.844 62.5509 927.719 62.3208C927.594 62.0878 927.42 61.9046 927.195 61.7711C926.974 61.6375 926.715 61.5708 926.42 61.5708C926.104 61.5708 925.827 61.6475 925.589 61.8009C925.35 61.9515 925.164 62.1503 925.031 62.3975C924.9 62.6418 924.833 62.9103 924.83 63.2029L924.83 64.1106C924.83 64.4912 924.9 64.8179 925.039 65.0907C925.178 65.3606 925.373 65.5679 925.623 65.7128C925.873 65.8549 926.165 65.9259 926.501 65.9259C926.725 65.9259 926.928 65.8946 927.11 65.8321C927.292 65.7668 927.45 65.6716 927.583 65.5466C927.717 65.4216 927.817 65.2668 927.886 65.0821L929.326 65.2441C929.235 65.6248 929.062 65.9571 928.806 66.2412C928.553 66.5225 928.229 66.7412 927.835 66.8975C927.44 67.0509 926.988 67.1276 926.479 67.1276ZM933.124 67.1148C932.61 67.1148 932.15 66.9827 931.743 66.7185C931.337 66.4543 931.016 66.0708 930.78 65.5679C930.544 65.0651 930.426 64.4543 930.426 63.7356C930.426 63.0083 930.546 62.3946 930.784 61.8946C931.026 61.3918 931.351 61.0125 931.76 60.7569C932.169 60.4983 932.625 60.3691 933.128 60.3691C933.512 60.3691 933.827 60.4344 934.074 60.5651C934.321 60.6929 934.517 60.8478 934.662 61.0296C934.807 61.2086 934.919 61.3776 934.999 61.5367L935.063 61.5367L935.063 58.2725L936.61 58.2725L936.61 66.9998L935.093 66.9998L935.093 65.9685L934.999 65.9685C934.919 66.1276 934.804 66.2966 934.654 66.4756C934.503 66.6517 934.304 66.8023 934.057 66.9273C933.81 67.0523 933.499 67.1148 933.124 67.1148ZM933.554 65.8492C933.881 65.8492 934.159 65.7611 934.39 65.585C934.62 65.406 934.794 65.1574 934.914 64.8392C935.033 64.5211 935.093 64.1503 935.093 63.727C935.093 63.3037 935.033 62.9358 934.914 62.6233C934.797 62.3108 934.624 62.0679 934.394 61.8946C934.167 61.7213 933.887 61.6347 933.554 61.6347C933.211 61.6347 932.924 61.7242 932.694 61.9032C932.463 62.0821 932.29 62.3293 932.174 62.6446C932.057 62.96 931.999 63.3208 931.999 63.727C931.999 64.1361 932.057 64.5012 932.174 64.8222C932.293 65.1404 932.468 65.3918 932.698 65.5765C932.931 65.7583 933.216 65.8492 933.554 65.8492Z" fill="white"/>
<path d="M950.352 67.1191C949.79 67.1191 949.288 67.0225 948.848 66.8293C948.411 66.6361 948.063 66.3677 947.804 66.0239C947.548 65.6773 947.409 65.2753 947.386 64.8179L948.46 64.8179C948.483 65.0992 948.58 65.3421 948.75 65.5466C948.92 65.7483 949.143 65.9046 949.419 66.0154C949.695 66.1262 950 66.1816 950.335 66.1816C950.71 66.1816 951.043 66.1162 951.332 65.9856C951.622 65.8549 951.849 65.6731 952.014 65.4401C952.179 65.2071 952.261 64.9373 952.261 64.6304C952.261 64.3094 952.182 64.0267 952.023 63.7824C951.864 63.5353 951.631 63.3421 951.324 63.2029C951.017 63.0637 950.642 62.9941 950.199 62.9941L949.5 62.9941L949.5 62.0566L950.199 62.0566C950.545 62.0566 950.849 61.9941 951.111 61.8691C951.375 61.7441 951.581 61.5679 951.729 61.3407C951.879 61.1134 951.955 60.8463 951.955 60.5395C951.955 60.2441 951.889 59.987 951.759 59.7682C951.628 59.5495 951.443 59.379 951.205 59.2569C950.969 59.1347 950.69 59.0736 950.369 59.0736C950.068 59.0736 949.784 59.129 949.517 59.2398C949.253 59.3478 949.037 59.5054 948.869 59.7128C948.702 59.9174 948.611 60.1645 948.597 60.4543L947.574 60.4543C947.591 59.9969 947.729 59.5963 947.987 59.2526C948.246 58.906 948.584 58.6361 949.001 58.4429C949.422 58.2498 949.884 58.1532 950.386 58.1532C950.926 58.1532 951.389 58.2625 951.776 58.4813C952.162 58.6972 952.459 58.9827 952.666 59.3378C952.874 59.6929 952.977 60.0765 952.977 60.4884C952.977 60.9799 952.848 61.3989 952.589 61.7455C952.334 62.0921 951.986 62.3321 951.545 62.4657L951.545 62.5338C952.097 62.6248 952.527 62.8591 952.837 63.237C953.146 63.612 953.301 64.0765 953.301 64.6304C953.301 65.1049 953.172 65.531 952.913 65.9088C952.658 66.2838 952.308 66.5793 951.865 66.7952C951.422 67.0111 950.918 67.1191 950.352 67.1191ZM957.891 67.1191C957.249 67.1191 956.702 66.9444 956.25 66.5949C955.798 66.2427 955.453 65.7327 955.214 65.0651C954.976 64.3946 954.857 63.585 954.857 62.6361C954.857 61.6929 954.976 60.8875 955.214 60.2199C955.456 59.5495 955.803 59.0381 956.254 58.6858C956.709 58.3307 957.254 58.1532 957.891 58.1532C958.527 58.1532 959.071 58.3307 959.523 58.6858C959.977 59.0381 960.324 59.5495 960.563 60.2199C960.804 60.8875 960.925 61.6929 960.925 62.6361C960.925 63.585 960.805 64.3946 960.567 65.0651C960.328 65.7327 959.983 66.2427 959.531 66.5949C959.08 66.9444 958.533 67.1191 957.891 67.1191ZM957.891 66.1816C958.527 66.1816 959.021 65.8748 959.374 65.2611C959.726 64.6475 959.902 63.7725 959.902 62.6361C959.902 61.8804 959.821 61.237 959.659 60.7057C959.5 60.1745 959.27 59.7696 958.969 59.4912C958.67 59.2128 958.311 59.0736 957.891 59.0736C957.26 59.0736 956.767 59.3847 956.412 60.0069C956.057 60.6262 955.879 61.5026 955.879 62.6361C955.879 63.3918 955.959 64.0338 956.118 64.5623C956.277 65.0907 956.506 65.4927 956.804 65.7682C957.105 66.0438 957.467 66.1816 957.891 66.1816Z" fill="white"/>
<path fill-rule="evenodd" clip-rule="evenodd" d="M867.25 41.9998C867.25 40.7571 868.257 39.7498 869.5 39.7498C870.743 39.7498 871.75 40.7571 871.75 41.9998C871.75 43.2424 870.743 44.2498 869.5 44.2498C868.257 44.2498 867.25 43.2424 867.25 41.9998Z" fill="#D9DBE9"/>
<path d="M888.104 39.6716C888.064 39.2995 887.896 39.0097 887.601 38.8023C887.308 38.5949 886.928 38.4912 886.459 38.4912C886.129 38.4912 885.847 38.5409 885.611 38.6404C885.375 38.7398 885.195 38.8748 885.07 39.0452C884.945 39.2157 884.881 39.4103 884.878 39.629C884.878 39.8108 884.919 39.9685 885.001 40.102C885.087 40.2356 885.202 40.3492 885.347 40.4429C885.491 40.5338 885.652 40.6106 885.828 40.6731C886.004 40.7356 886.182 40.7881 886.361 40.8307L887.179 41.0353C887.509 41.112 887.825 41.2157 888.129 41.3463C888.436 41.477 888.71 41.6418 888.952 41.8407C889.196 42.0395 889.389 42.2796 889.531 42.5608C889.673 42.8421 889.744 43.1716 889.744 43.5495C889.744 44.0608 889.614 44.5111 889.352 44.9003C889.091 45.2867 888.713 45.5892 888.219 45.808C887.727 46.0239 887.132 46.1319 886.433 46.1319C885.754 46.1319 885.165 46.0267 884.665 45.8165C884.168 45.6063 883.778 45.2995 883.497 44.8961C883.219 44.4927 883.068 44.0012 883.045 43.4216L884.601 43.4216C884.624 43.7256 884.717 43.9784 884.882 44.1802C885.047 44.3819 885.261 44.5324 885.526 44.6319C885.793 44.7313 886.091 44.781 886.42 44.781C886.764 44.781 887.065 44.7299 887.324 44.6276C887.585 44.5225 887.79 44.3776 887.938 44.1929C888.085 44.0054 888.161 43.7867 888.163 43.5367C888.161 43.3094 888.094 43.1219 887.963 42.9742C887.832 42.8236 887.649 42.6986 887.413 42.5992C887.18 42.4969 886.908 42.406 886.595 42.3265L885.602 42.0708C884.884 41.8861 884.315 41.6063 883.898 41.2313C883.483 40.8534 883.276 40.352 883.276 39.727C883.276 39.2128 883.415 38.7625 883.693 38.3762C883.974 37.9898 884.357 37.6901 884.839 37.477C885.322 37.2611 885.869 37.1532 886.48 37.1532C887.099 37.1532 887.642 37.2611 888.108 37.477C888.577 37.6901 888.945 37.987 889.212 38.3677C889.479 38.7455 889.616 39.1802 889.625 39.6716L888.104 39.6716ZM891.086 45.9998L891.086 39.4543L892.628 39.4543L892.628 45.9998L891.086 45.9998ZM891.861 38.5253C891.617 38.5253 891.407 38.4444 891.23 38.2824C891.054 38.1177 890.966 37.9202 890.966 37.6901C890.966 37.4571 891.054 37.2597 891.23 37.0978C891.407 36.933 891.617 36.8506 891.861 36.8506C892.108 36.8506 892.319 36.933 892.492 37.0978C892.668 37.2597 892.756 37.4571 892.756 37.6901C892.756 37.9202 892.668 38.1177 892.492 38.2824C892.319 38.4444 892.108 38.5253 891.861 38.5253ZM897.061 48.5907C896.507 48.5907 896.031 48.5154 895.634 48.3648C895.236 48.2171 894.916 48.0182 894.675 47.7682C894.433 47.5182 894.266 47.2412 894.172 46.9373L895.561 46.6006C895.624 46.7284 895.714 46.8549 895.834 46.9799C895.953 47.1077 896.114 47.2128 896.315 47.2952C896.52 47.3804 896.777 47.4231 897.087 47.4231C897.524 47.4231 897.886 47.3165 898.173 47.1034C898.46 46.8932 898.604 46.5466 898.604 46.0637L898.604 44.8236L898.527 44.8236C898.447 44.9827 898.331 45.1461 898.178 45.3137C898.027 45.4813 897.827 45.6219 897.577 45.7356C897.33 45.8492 897.018 45.906 896.643 45.906C896.141 45.906 895.685 45.7881 895.276 45.5523C894.869 45.3137 894.545 44.9586 894.304 44.487C894.065 44.0125 893.946 43.4188 893.946 42.7057C893.946 41.987 894.065 41.3804 894.304 40.8861C894.545 40.389 894.871 40.0125 895.28 39.7569C895.689 39.4983 896.145 39.3691 896.648 39.3691C897.031 39.3691 897.347 39.4344 897.594 39.5651C897.844 39.6929 898.043 39.8478 898.19 40.0296C898.338 40.2086 898.45 40.3776 898.527 40.5367L898.612 40.5367L898.612 39.4543L900.134 39.4543L900.134 46.1063C900.134 46.6659 900 47.129 899.733 47.4955C899.466 47.862 899.101 48.1361 898.638 48.3179C898.175 48.4998 897.649 48.5907 897.061 48.5907ZM897.074 44.6958C897.401 44.6958 897.679 44.6162 897.909 44.4571C898.139 44.2981 898.314 44.0694 898.433 43.7711C898.553 43.4728 898.612 43.1148 898.612 42.6972C898.612 42.2853 898.553 41.9245 898.433 41.6148C898.317 41.3052 898.143 41.0651 897.913 40.8946C897.686 40.7213 897.406 40.6347 897.074 40.6347C896.73 40.6347 896.443 40.7242 896.213 40.9032C895.983 41.0821 895.81 41.3279 895.693 41.6404C895.577 41.95 895.518 42.3023 895.518 42.6972C895.518 43.0978 895.577 43.4486 895.693 43.7498C895.813 44.0481 895.987 44.281 896.217 44.4486C896.45 44.6134 896.736 44.6958 897.074 44.6958ZM903.257 42.1645L903.257 45.9998L901.714 45.9998L901.714 39.4543L903.189 39.4543L903.189 40.5665L903.266 40.5665C903.416 40.2 903.656 39.9088 903.986 39.6929C904.318 39.477 904.729 39.3691 905.217 39.3691C905.669 39.3691 906.063 39.4657 906.398 39.6588C906.736 39.852 906.997 40.1319 907.182 40.4983C907.369 40.8648 907.462 41.3094 907.459 41.8321L907.459 45.9998L905.916 45.9998L905.916 42.0708C905.916 41.6333 905.803 41.2909 905.575 41.0438C905.351 40.7966 905.04 40.6731 904.642 40.6731C904.372 40.6731 904.132 40.7327 903.922 40.852C903.714 40.9685 903.551 41.1375 903.432 41.3591C903.315 41.5807 903.257 41.8492 903.257 42.1645ZM911.925 46.1276C911.268 46.1276 910.702 45.9912 910.224 45.7185C909.75 45.4429 909.385 45.0537 909.129 44.5509C908.874 44.0452 908.746 43.45 908.746 42.7654C908.746 42.0921 908.874 41.5012 909.129 40.9927C909.388 40.4813 909.749 40.0836 910.212 39.7995C910.675 39.5125 911.219 39.3691 911.844 39.3691C912.247 39.3691 912.628 39.4344 912.986 39.5651C913.347 39.6929 913.665 39.8918 913.94 40.1617C914.219 40.4316 914.438 40.7753 914.597 41.1929C914.756 41.6077 914.835 42.102 914.835 42.6759L914.835 43.1489L909.47 43.1489L909.47 42.1091L913.357 42.1091C913.354 41.8137 913.29 41.5509 913.165 41.3208C913.04 41.0878 912.865 40.9046 912.641 40.7711C912.419 40.6375 912.161 40.5708 911.865 40.5708C911.55 40.5708 911.273 40.6475 911.034 40.8009C910.795 40.9515 910.609 41.1503 910.476 41.3975C910.345 41.6418 910.278 41.9103 910.276 42.2029L910.276 43.1106C910.276 43.4912 910.345 43.8179 910.484 44.0907C910.624 44.3606 910.818 44.5679 911.068 44.7128C911.318 44.8549 911.611 44.9259 911.946 44.9259C912.17 44.9259 912.374 44.8946 912.555 44.8321C912.737 44.7668 912.895 44.6716 913.028 44.5466C913.162 44.4216 913.263 44.2668 913.331 44.0821L914.771 44.2441C914.68 44.6248 914.507 44.9571 914.251 45.2412C913.999 45.5225 913.675 45.7412 913.28 45.8975C912.885 46.0509 912.433 46.1276 911.925 46.1276ZM918.569 46.1148C918.055 46.1148 917.595 45.9827 917.189 45.7185C916.782 45.4543 916.461 45.0708 916.225 44.5679C915.99 44.0651 915.872 43.4543 915.872 42.7356C915.872 42.0083 915.991 41.3946 916.23 40.8946C916.471 40.3918 916.797 40.0125 917.206 39.7569C917.615 39.4983 918.071 39.3691 918.574 39.3691C918.957 39.3691 919.272 39.4344 919.52 39.5651C919.767 39.6929 919.963 39.8478 920.108 40.0296C920.252 40.2086 920.365 40.3776 920.444 40.5367L920.508 40.5367L920.508 37.2725L922.055 37.2725L922.055 45.9998L920.538 45.9998L920.538 44.9685L920.444 44.9685C920.365 45.1276 920.25 45.2966 920.099 45.4756C919.949 45.6517 919.75 45.8023 919.502 45.9273C919.255 46.0523 918.944 46.1148 918.569 46.1148ZM919 44.8492C919.326 44.8492 919.605 44.7611 919.835 44.585C920.065 44.406 920.24 44.1574 920.359 43.8392C920.478 43.5211 920.538 43.1503 920.538 42.727C920.538 42.3037 920.478 41.9358 920.359 41.6233C920.243 41.3108 920.069 41.0679 919.839 40.8946C919.612 40.7213 919.332 40.6347 919 40.6347C918.656 40.6347 918.369 40.7242 918.139 40.9032C917.909 41.0821 917.735 41.3293 917.619 41.6446C917.502 41.96 917.444 42.3208 917.444 42.727C917.444 43.1361 917.502 43.5012 917.619 43.8222C917.738 44.1404 917.913 44.3918 918.143 44.5765C918.376 44.7583 918.662 44.8492 919 44.8492Z" fill="white"/>
<path d="M947.676 45.9998L951.58 38.2782L951.58 38.21L947.08 38.21L947.08 37.2725L952.67 37.2725L952.67 38.2611L948.784 45.9998L947.676 45.9998ZM956.918 46.1191C956.276 46.1191 955.729 45.9444 955.277 45.5949C954.826 45.2427 954.48 44.7327 954.242 44.0651C954.003 43.3946 953.884 42.585 953.884 41.6361C953.884 40.6929 954.003 39.8875 954.242 39.2199C954.483 38.5495 954.83 38.0381 955.282 37.6858C955.736 37.3307 956.282 37.1532 956.918 37.1532C957.554 37.1532 958.098 37.3307 958.55 37.6858C959.005 38.0381 959.351 38.5495 959.59 39.2199C959.831 39.8875 959.952 40.6929 959.952 41.6361C959.952 42.585 959.833 43.3946 959.594 44.0651C959.355 44.7327 959.01 45.2427 958.559 45.5949C958.107 45.9444 957.56 46.1191 956.918 46.1191ZM956.918 45.1816C957.554 45.1816 958.049 44.8748 958.401 44.2611C958.753 43.6475 958.929 42.7725 958.929 41.6361C958.929 40.8804 958.848 40.237 958.686 39.7057C958.527 39.1745 958.297 38.7696 957.996 38.4912C957.698 38.2128 957.338 38.0736 956.918 38.0736C956.287 38.0736 955.794 38.3847 955.439 39.0069C955.084 39.6262 954.907 40.5026 954.907 41.6361C954.907 42.3918 954.986 43.0338 955.145 43.5623C955.304 44.0907 955.533 44.4927 955.831 44.7682C956.132 45.0438 956.495 45.1816 956.918 45.1816Z" fill="white"/>
<path d="M866.33 18.4543C866.278 18.0225 866.071 17.6873 865.707 17.4486C865.344 17.21 864.898 17.0907 864.369 17.0907C863.983 17.0907 863.645 17.1532 863.355 17.2782C863.068 17.4032 862.844 17.575 862.682 17.7938C862.523 18.0125 862.443 18.2611 862.443 18.5395C862.443 18.7725 862.499 18.9728 862.609 19.1404C862.723 19.3052 862.868 19.4429 863.044 19.5537C863.22 19.6617 863.405 19.7512 863.598 19.8222C863.791 19.8904 863.969 19.9458 864.131 19.9884L865.017 20.227C865.244 20.2867 865.497 20.3691 865.776 20.4742C866.057 20.5793 866.325 20.7228 866.581 20.9046C866.839 21.0836 867.053 21.3137 867.22 21.5949C867.388 21.8762 867.472 22.2213 867.472 22.6304C867.472 23.102 867.348 23.5282 867.101 23.9088C866.857 24.2895 866.499 24.5921 866.027 24.8165C865.558 25.0409 864.989 25.1532 864.318 25.1532C863.693 25.1532 863.152 25.0523 862.695 24.8506C862.24 24.6489 861.882 24.3677 861.621 24.0069C861.362 23.6461 861.216 23.227 861.182 22.7498L862.273 22.7498C862.301 23.0793 862.412 23.352 862.605 23.5679C862.801 23.781 863.048 23.9401 863.347 24.0452C863.648 24.1475 863.972 24.1986 864.318 24.1986C864.722 24.1986 865.084 24.1333 865.405 24.0026C865.726 23.8691 865.98 23.6844 866.168 23.4486C866.355 23.21 866.449 22.9316 866.449 22.6134C866.449 22.3236 866.368 22.0878 866.206 21.906C866.044 21.7242 865.831 21.5765 865.567 21.4628C865.303 21.3492 865.017 21.2498 864.71 21.1645L863.636 20.8577C862.955 20.6617 862.415 20.3819 862.017 20.0182C861.619 19.6546 861.42 19.1787 861.42 18.5907C861.42 18.102 861.553 17.6759 861.817 17.3123C862.084 16.9458 862.442 16.6617 862.891 16.46C863.342 16.2554 863.847 16.1532 864.403 16.1532C864.966 16.1532 865.466 16.254 865.903 16.4557C866.341 16.6546 866.688 16.9273 866.943 17.2739C867.202 17.6205 867.338 18.014 867.352 18.4543L866.33 18.4543ZM871.817 25.1361C871.186 25.1361 870.642 24.9969 870.185 24.7185C869.73 24.4373 869.38 24.0452 869.132 23.5424C868.888 23.0367 868.766 22.4486 868.766 21.7782C868.766 21.1077 868.888 20.5168 869.132 20.0054C869.38 19.4912 869.723 19.0907 870.164 18.8037C870.607 18.514 871.124 18.3691 871.715 18.3691C872.056 18.3691 872.392 18.4259 872.725 18.5395C873.057 18.6532 873.36 18.8378 873.632 19.0935C873.905 19.3463 874.123 19.6816 874.284 20.0992C874.446 20.5168 874.527 21.031 874.527 21.6418L874.527 22.0679L869.482 22.0679L869.482 21.1986L873.505 21.1986C873.505 20.8293 873.431 20.4998 873.283 20.21C873.138 19.9202 872.931 19.6915 872.661 19.5239C872.394 19.3563 872.078 19.2725 871.715 19.2725C871.314 19.2725 870.968 19.3719 870.675 19.5708C870.385 19.7668 870.162 20.0225 870.006 20.3378C869.85 20.6532 869.772 20.9912 869.772 21.352L869.772 21.9316C869.772 22.4259 869.857 22.8449 870.027 23.1887C870.201 23.5296 870.441 23.7895 870.748 23.9685C871.054 24.1446 871.411 24.2327 871.817 24.2327C872.081 24.2327 872.32 24.1958 872.533 24.1219C872.749 24.0452 872.935 23.9316 873.091 23.781C873.248 23.6276 873.368 23.4373 873.453 23.21L874.425 23.4827C874.323 23.8123 874.151 24.102 873.909 24.352C873.668 24.5992 873.37 24.7924 873.015 24.9316C872.659 25.0679 872.26 25.1361 871.817 25.1361ZM876.057 27.4543L876.057 18.4543L877.029 18.4543L877.029 19.4941L877.148 19.4941C877.222 19.3804 877.324 19.2356 877.455 19.0594C877.588 18.8804 877.779 18.7213 878.026 18.5821C878.276 18.4401 878.614 18.3691 879.04 18.3691C879.591 18.3691 880.077 18.5069 880.498 18.7824C880.918 19.058 881.246 19.4486 881.482 19.9543C881.718 20.46 881.836 21.0566 881.836 21.7441C881.836 22.4373 881.718 23.0381 881.482 23.5466C881.246 24.0523 880.919 24.4444 880.502 24.7228C880.084 24.9983 879.603 25.1361 879.057 25.1361C878.637 25.1361 878.3 25.0665 878.047 24.9273C877.794 24.7853 877.6 24.6248 877.463 24.4458C877.327 24.264 877.222 24.1134 877.148 23.9941L877.063 23.9941L877.063 27.4543L876.057 27.4543ZM877.046 21.727C877.046 22.2213 877.118 22.6574 877.263 23.0353C877.408 23.4103 877.62 23.7043 877.898 23.9174C878.176 24.1276 878.517 24.2327 878.921 24.2327C879.341 24.2327 879.692 24.1219 879.973 23.9003C880.257 23.6759 880.471 23.3748 880.613 22.9969C880.757 22.6162 880.83 22.1929 880.83 21.727C880.83 21.2668 880.759 20.852 880.617 20.4827C880.478 20.1106 880.266 19.8165 879.982 19.6006C879.701 19.3819 879.347 19.2725 878.921 19.2725C878.512 19.2725 878.168 19.3762 877.89 19.5836C877.611 19.7881 877.401 20.075 877.259 20.4444C877.117 20.8108 877.046 21.2384 877.046 21.727ZM886.216 18.4543L886.216 19.3066L882.824 19.3066L882.824 18.4543L886.216 18.4543ZM883.813 16.8861L884.819 16.8861L884.819 23.1248C884.819 23.4088 884.86 23.6219 884.942 23.764C885.027 23.9032 885.135 23.9969 885.266 24.0452C885.4 24.0907 885.54 24.1134 885.688 24.1134C885.799 24.1134 885.89 24.1077 885.961 24.0963C886.032 24.0821 886.088 24.0708 886.131 24.0623L886.336 24.9657C886.267 24.9912 886.172 25.0168 886.05 25.0424C885.928 25.0708 885.773 25.085 885.586 25.085C885.301 25.085 885.023 25.0239 884.75 24.9017C884.48 24.7796 884.256 24.5935 884.077 24.3435C883.901 24.0935 883.813 23.7782 883.813 23.3975L883.813 16.8861ZM890.403 25.1361C889.772 25.1361 889.228 24.9969 888.771 24.7185C888.316 24.4373 887.966 24.0452 887.718 23.5424C887.474 23.0367 887.352 22.4486 887.352 21.7782C887.352 21.1077 887.474 20.5168 887.718 20.0054C887.966 19.4912 888.309 19.0907 888.75 18.8037C889.193 18.514 889.71 18.3691 890.301 18.3691C890.642 18.3691 890.978 18.4259 891.311 18.5395C891.643 18.6532 891.946 18.8378 892.218 19.0935C892.491 19.3463 892.708 19.6816 892.87 20.0992C893.032 20.5168 893.113 21.031 893.113 21.6418L893.113 22.0679L888.068 22.0679L888.068 21.1986L892.091 21.1986C892.091 20.8293 892.017 20.4998 891.869 20.21C891.724 19.9202 891.517 19.6915 891.247 19.5239C890.98 19.3563 890.664 19.2725 890.301 19.2725C889.9 19.2725 889.554 19.3719 889.261 19.5708C888.971 19.7668 888.748 20.0225 888.592 20.3378C888.436 20.6532 888.358 20.9912 888.358 21.352L888.358 21.9316C888.358 22.4259 888.443 22.8449 888.613 23.1887C888.787 23.5296 889.027 23.7895 889.333 23.9685C889.64 24.1446 889.997 24.2327 890.403 24.2327C890.667 24.2327 890.906 24.1958 891.119 24.1219C891.335 24.0452 891.521 23.9316 891.677 23.781C891.833 23.6276 891.954 23.4373 892.039 23.21L893.011 23.4827C892.909 23.8123 892.737 24.102 892.495 24.352C892.254 24.5992 891.956 24.7924 891.6 24.9316C891.245 25.0679 890.846 25.1361 890.403 25.1361ZM894.643 24.9998L894.643 18.4543L895.615 18.4543L895.615 19.477L895.7 19.477C895.836 19.1276 896.056 18.8563 896.36 18.6631C896.664 18.4671 897.029 18.3691 897.456 18.3691C897.887 18.3691 898.247 18.4671 898.534 18.6631C898.824 18.8563 899.049 19.1276 899.211 19.477L899.279 19.477C899.447 19.139 899.699 18.8705 900.034 18.6716C900.369 18.4699 900.771 18.3691 901.24 18.3691C901.825 18.3691 902.304 18.5523 902.676 18.9188C903.048 19.2824 903.234 19.8492 903.234 20.6191L903.234 24.9998L902.228 24.9998L902.228 20.6191C902.228 20.1361 902.096 19.7909 901.832 19.5836C901.568 19.3762 901.257 19.2725 900.899 19.2725C900.439 19.2725 900.082 19.4117 899.829 19.6901C899.576 19.9657 899.45 20.3151 899.45 20.7384L899.45 24.9998L898.427 24.9998L898.427 20.5168C898.427 20.1446 898.306 19.8449 898.065 19.6177C897.824 19.3875 897.512 19.2725 897.132 19.2725C896.87 19.2725 896.626 19.3421 896.399 19.4813C896.174 19.6205 895.993 19.8137 895.853 20.0608C895.717 20.3052 895.649 20.5878 895.649 20.9088L895.649 24.9998L894.643 24.9998ZM905.209 24.9998L905.209 16.2725L906.215 16.2725L906.215 19.4941L906.3 19.4941C906.374 19.3804 906.476 19.2356 906.607 19.0594C906.74 18.8804 906.931 18.7213 907.178 18.5821C907.428 18.4401 907.766 18.3691 908.192 18.3691C908.743 18.3691 909.229 18.5069 909.65 18.7824C910.07 19.058 910.398 19.4486 910.634 19.9543C910.87 20.46 910.988 21.0566 910.988 21.7441C910.988 22.4373 910.87 23.0381 910.634 23.5466C910.398 24.0523 910.071 24.4444 909.654 24.7228C909.236 24.9983 908.755 25.1361 908.209 25.1361C907.789 25.1361 907.452 25.0665 907.199 24.9273C906.946 24.7853 906.752 24.6248 906.615 24.4458C906.479 24.264 906.374 24.1134 906.3 23.9941L906.181 23.9941L906.181 24.9998L905.209 24.9998ZM906.198 21.727C906.198 22.2213 906.27 22.6574 906.415 23.0353C906.56 23.4103 906.772 23.7043 907.05 23.9174C907.328 24.1276 907.669 24.2327 908.073 24.2327C908.493 24.2327 908.844 24.1219 909.125 23.9003C909.409 23.6759 909.623 23.3748 909.765 22.9969C909.909 22.6162 909.982 22.1929 909.982 21.727C909.982 21.2668 909.911 20.852 909.769 20.4827C909.63 20.1106 909.418 19.8165 909.134 19.6006C908.853 19.3819 908.499 19.2725 908.073 19.2725C907.664 19.2725 907.32 19.3762 907.042 19.5836C906.763 19.7881 906.553 20.075 906.411 20.4444C906.269 20.8108 906.198 21.2384 906.198 21.727ZM915.27 25.1361C914.64 25.1361 914.096 24.9969 913.638 24.7185C913.184 24.4373 912.833 24.0452 912.586 23.5424C912.341 23.0367 912.219 22.4486 912.219 21.7782C912.219 21.1077 912.341 20.5168 912.586 20.0054C912.833 19.4912 913.176 19.0907 913.617 18.8037C914.06 18.514 914.577 18.3691 915.168 18.3691C915.509 18.3691 915.846 18.4259 916.178 18.5395C916.51 18.6532 916.813 18.8378 917.086 19.0935C917.358 19.3463 917.576 19.6816 917.738 20.0992C917.9 20.5168 917.98 21.031 917.98 21.6418L917.98 22.0679L912.935 22.0679L912.935 21.1986L916.958 21.1986C916.958 20.8293 916.884 20.4998 916.736 20.21C916.591 19.9202 916.384 19.6915 916.114 19.5239C915.847 19.3563 915.532 19.2725 915.168 19.2725C914.767 19.2725 914.421 19.3719 914.128 19.5708C913.838 19.7668 913.615 20.0225 913.459 20.3378C913.303 20.6532 913.225 20.9912 913.225 21.352L913.225 21.9316C913.225 22.4259 913.31 22.8449 913.48 23.1887C913.654 23.5296 913.894 23.7895 914.201 23.9685C914.507 24.1446 914.864 24.2327 915.27 24.2327C915.534 24.2327 915.773 24.1958 915.986 24.1219C916.202 24.0452 916.388 23.9316 916.544 23.781C916.701 23.6276 916.821 23.4373 916.907 23.21L917.878 23.4827C917.776 23.8123 917.604 24.102 917.363 24.352C917.121 24.5992 916.823 24.7924 916.468 24.9316C916.113 25.0679 915.713 25.1361 915.27 25.1361ZM919.51 24.9998L919.51 18.4543L920.482 18.4543L920.482 19.4429L920.55 19.4429C920.669 19.1191 920.885 18.8563 921.198 18.6546C921.51 18.4529 921.863 18.352 922.255 18.352C922.328 18.352 922.421 18.3534 922.532 18.3563C922.642 18.3591 922.726 18.3634 922.783 18.3691L922.783 19.3918C922.749 19.3833 922.671 19.3705 922.549 19.3534C922.429 19.3336 922.303 19.3236 922.169 19.3236C921.851 19.3236 921.567 19.3904 921.317 19.5239C921.07 19.6546 920.874 19.8364 920.729 20.0694C920.587 20.2995 920.516 20.5623 920.516 20.8577L920.516 24.9998L919.51 24.9998Z" fill="white"/>
</g>
<path d="M79 168V205H96V168H79Z" fill="#A3D2B5"/>
<path d="M98 121V205H114V121H98Z" fill="#188E47"/>
<path d="M116 187V205H132V187H116Z" fill="#0C4724"/>
<path d="M180 168V205H197V168H180Z" fill="#A3D2B5"/>
<path d="M199 121V205H215V121H199Z" fill="#188E47"/>
<path d="M217 187V205H233V187H217Z" fill="#0C4724"/>
<path d="M281 76V205H298V76H281Z" fill="#A3D2B5"/>
<path d="M300 121V205H316V121H300Z" fill="#188E47"/>
<path d="M318 187V205H334V187H318Z" fill="#0C4724"/>
<path d="M382 140V205H399V140H382Z" fill="#A3D2B5"/>
<path d="M401 55V205H417V55H401Z" fill="#188E47"/>
<path d="M419 169V205H435V169H419Z" fill="#0C4724"/>
<path d="M483 164V205H500V164H483Z" fill="#A3D2B5"/>
<path d="M502 51V205H518V51H502Z" fill="#188E47"/>
<path d="M520 136V205H536V136H520Z" fill="#0C4724"/>
<path d="M584 76V205H601V76H584Z" fill="#A3D2B5"/>
<path d="M603 121V205H619V121H603Z" fill="#188E47"/>
<path d="M621 187V205H637V187H621Z" fill="#0C4724"/>
<path d="M685 76V205H702V76H685Z" fill="#A3D2B5"/>
<path d="M704 121V205H720V121H704Z" fill="#188E47"/>
<path d="M722 187V205H738V187H722Z" fill="#0C4724"/>
<path d="M786 168V205H803V168H786Z" fill="#A3D2B5"/>
<path d="M805 121V205H821V121H805Z" fill="#188E47"/>
<path d="M823 187V205H839V187H823Z" fill="#0C4724"/>
<path d="M887 168V205H904V168H887Z" fill="#A3D2B5"/>
<path d="M906 121V205H922V121H906Z" fill="#188E47"/>
<path d="M924 187V205H940V187H924Z" fill="#0C4724"/>
<path d="M988 140V205H1005V140H988Z" fill="#A3D2B5"/>
<path d="M1007 55V205H1023V55H1007Z" fill="#188E47"/>
<path d="M1025 169V205H1041V169H1025Z" fill="#0C4724"/>
<defs>
<filter id="filter0_dd_1067_21406" x="839.8" y="-0.000243902" width="143.4" height="125.4" filterUnits="userSpaceOnUse" color-interpolation-filters="sRGB">
<feFlood flood-opacity="0" result="BackgroundImageFix"/>
<feColorMatrix in="SourceAlpha" type="matrix" values="0 0 0 0 0 0 0 0 0 0 0 0 0 0 0 0 0 0 127 0" result="hardAlpha"/>
<feOffset dy="3.2"/>
<feGaussianBlur stdDeviation="3.6"/>
<feColorMatrix type="matrix" values="0 0 0 0 0 0 0 0 0 0 0 0 0 0 0 0 0 0 0.13 0"/>
<feBlend mode="normal" in2="BackgroundImageFix" result="effect1_dropShadow_1067_21406"/>
<feColorMatrix in="SourceAlpha" type="matrix" values="0 0 0 0 0 0 0 0 0 0 0 0 0 0 0 0 0 0 127 0" result="hardAlpha"/>
<feOffset dy="0.6"/>
<feGaussianBlur stdDeviation="0.9"/>
<feColorMatrix type="matrix" values="0 0 0 0 0 0 0 0 0 0 0 0 0 0 0 0 0 0 0.1 0"/>
<feBlend mode="normal" in2="effect1_dropShadow_1067_21406" result="effect2_dropShadow_1067_21406"/>
<feBlend mode="normal" in="SourceGraphic" in2="effect2_dropShadow_1067_21406" result="shape"/>
</filter>
</defs>
</svg>
