<svg width="167" height="130" viewBox="0 0 167 130" fill="none" xmlns="http://www.w3.org/2000/svg">
<g id="https://lottiefiles.com/animations/welcome-green-LLXUqCdO3G" clip-path="url(#clip0_169_33843)">
<g id="Clip path group">
<mask id="mask0_169_33843" style="mask-type:luminance" maskUnits="userSpaceOnUse" x="0" y="0" width="167" height="130">
<g id="__lottie_element_773">
<path id="Vector" d="M166.5 0.5H0.5V129.5H166.5V0.5Z" fill="white"/>
</g>
</mask>
<g mask="url(#mask0_169_33843)">
<g id="Group">
<g id="Clip path group_2">
<mask id="mask1_169_33843" style="mask-type:luminance" maskUnits="userSpaceOnUse" x="-9" y="-22" width="185" height="185">
<g id="__lottie_element_775">
<path id="Vector_2" d="M-8.72217 -21.9829H175.722V162.303H-8.72217V-21.9829Z" fill="white"/>
</g>
</mask>
<g mask="url(#mask1_169_33843)">
<g id="Group_2">
<g id="Group_3">
<g id="Group_4">
<path id="Vector_3" d="M51.9836 123.474C54.0349 116.876 58.6508 107.73 60.5114 103.454C60.6801 103.066 61.2424 103.118 61.3545 103.525C61.8027 105.154 62.3934 109.956 62.1298 124.089L62.1359 129.865H74.5551L76.4998 115.963C76.5996 114.897 80.5866 97.4725 70.5681 84.0366H51.126C51.126 84.0366 42.7377 97.9871 39.7838 113.946C39.1133 117.568 38.35 123.421 37.8495 129.928H50.6054C50.6054 129.928 51.2126 125.535 51.9836 123.474Z" fill="#59A15C"/>
</g>
<g id="Group_5">
<path id="Vector_4" d="M55.1449 100.92L61.5258 103.525" stroke="#347B4A" stroke-width="3.48998" stroke-miterlimit="10"/>
</g>
</g>
<g id="Group_6">
<g id="Group_7">
<path id="Vector_5" d="M45.8453 33.1689C45.8453 33.1689 45.9799 39.8405 38.9088 45.1375C31.3696 50.7855 39.2936 62.9355 53.6801 61.1143C69.3079 59.1361 75.5789 43.7935 61.158 28.0896L45.8453 33.1689Z" fill="#3A1616"/>
</g>
</g>
<g id="Group_8">
<g id="Group_9">
<path id="Vector_6" d="M53.8905 52.7456L52.1837 41.463L59.0713 40.3741L61.0266 51.7508L53.8905 52.7456Z" fill="#D58F6E"/>
</g>
<g id="Group_10">
<path id="Vector_7" d="M51.8342 44.9029C51.3115 43.963 54.9543 49.1487 57.7527 48.3308C60.1525 47.6294 59.8663 43.156 59.8663 43.156C59.8663 43.156 58.9983 45.0128 56.4133 45.4254C53.5303 45.8855 51.8342 44.9029 51.8342 44.9029Z" fill="#3A1616"/>
</g>
<g id="Group_11">
<path id="Vector_8" d="M46.2216 36.0369C47.8954 40.9228 51.4878 44.6892 56.1735 43.9485C60.8592 43.2077 63.417 38.519 63.1893 33.3545C62.931 27.4948 57.9382 24.7998 53.2525 25.5406C48.5668 26.2814 44.503 31.0198 46.2216 36.0369Z" fill="#3A1616"/>
</g>
<g id="Group_12">
<path id="Vector_9" d="M47.7858 38.4751C47.7858 38.4751 47.0206 37.6005 45.8367 38.2774C44.6523 38.9541 45.7075 41.9223 47.659 42.0133C47.659 42.0133 48.3606 42.0541 48.818 41.5068C48.818 41.5068 47.9949 39.3208 47.7858 38.4751Z" fill="#D58F6E"/>
</g>
<g id="Group_13">
<path id="Vector_10" d="M46.2577 39.3167C46.2577 39.3167 47.2576 38.7979 48.2531 40.2333" stroke="#161211" stroke-width="1.79405" stroke-linecap="round" stroke-linejoin="round"/>
</g>
<g id="Group_14">
<path id="Vector_11" d="M62.2574 36.1846C62.2574 36.1846 62.714 35.1168 64.0499 35.3954C65.3855 35.6737 65.3008 38.8221 63.4727 39.5106C63.4727 39.5106 62.8188 39.7657 62.2139 39.3863C62.2139 39.3863 62.3203 37.0534 62.2574 36.1846Z" fill="#D58F6E"/>
</g>
<g id="Group_15">
<path id="Vector_12" d="M63.9713 36.514C63.9713 36.514 62.8595 36.3291 62.357 38.0012" stroke="#161211" stroke-width="1.79405" stroke-linecap="round" stroke-linejoin="round"/>
</g>
<g id="Group_16">
<path id="Vector_13" d="M47.2505 35.8571C47.5608 37.8171 48.3487 41.471 50.0058 43.7039C51.5618 45.8002 53.8702 46.6253 56.4593 46.2176C59.0104 45.8156 61.0708 43.7094 61.7816 41.586C62.8558 38.3762 62.016 33.56 62.016 33.56C62.016 33.56 60.905 26.5586 53.6054 27.7126C45.9168 28.9281 47.2505 35.8571 47.2505 35.8571Z" fill="#D58F6E"/>
</g>
<g id="Group_17">
<path id="Vector_14" d="M52.9343 34.6143L49.0941 36.2816C49.0941 36.2816 49.0979 35.1303 50.6713 34.4632C52.2447 33.7962 52.9343 34.6143 52.9343 34.6143Z" fill="#1A1A1A"/>
</g>
<g id="Group_18">
<path id="Vector_15" d="M55.4793 34.211L59.6474 34.6122C59.6474 34.6122 59.2873 33.5183 57.5845 33.3693C55.8816 33.2203 55.4793 34.211 55.4793 34.211Z" fill="#1A1A1A"/>
</g>
<g id="Group_19">
<path id="Vector_16" d="M54.5005 37.7613L54.5475 39.2199L55.5855 39.0558" stroke="#161211" stroke-width="1.79405" stroke-linecap="round" stroke-linejoin="round"/>
</g>
<g id="Group_20">
<path id="Vector_17" d="M58.3346 39.8636L52.5012 40.7859C52.5012 40.7859 53.0087 42.9042 55.7439 42.4767C58.2652 42.0826 58.3346 39.8636 58.3346 39.8636Z" fill="white"/>
</g>
<g id="Group_21">
<path id="Vector_18" d="M52.4693 37.0419C52.4693 37.0419 51.2727 36.6529 50.4254 37.3652" stroke="#161211" stroke-width="1.79405" stroke-linecap="round" stroke-linejoin="round"/>
</g>
<g id="Group_22">
<path id="Vector_19" d="M58.8399 36.0336C58.8399 36.0336 57.6433 35.6446 56.796 36.3569" stroke="#161211" stroke-width="1.79405" stroke-linecap="round" stroke-linejoin="round"/>
</g>
<g id="Group_23">
<path id="Vector_20" d="M62.2582 36.1857C62.2582 36.1857 59.7037 32.6421 60.5177 29.0035C60.5177 29.0035 61.8732 28.8101 62.6733 34.1609L62.2582 36.1857Z" fill="#3A1616"/>
</g>
<g id="Group_24">
<path id="Vector_21" d="M47.788 38.4756C47.788 38.4756 49.076 34.0774 47.2195 31.1081C47.2195 31.1081 45.8704 31.3422 46.7662 36.6779L47.788 38.4756Z" fill="#3A1616"/>
</g>
<g id="Group_25">
<path id="Vector_22" d="M62.9891 31.6639C62.9891 31.6639 52.36 32.7054 48.6317 28.9229C48.6317 28.9229 49.2071 26.1106 54.0148 26.1046C58.8218 26.0983 62.9891 31.6639 62.9891 31.6639Z" fill="#3A1616"/>
</g>
<g id="Group_26">
<path id="Vector_23" d="M52.7718 27.1474C52.7718 27.1474 50.7743 33.8037 46.4815 34.2695C46.4815 34.2695 47.8815 27.9813 52.7718 27.1474Z" fill="#3A1616"/>
</g>
</g>
<g id="Group_27">
<g id="Group_28">
<path id="Vector_24" d="M70.4759 64.2012C70.4759 64.2012 80.2213 85.207 85.5413 103.261L89.451 101.86C89.451 101.86 84.5504 74.9475 77.8341 58.882L70.4759 64.2012Z" fill="#D58F6E"/>
</g>
<g id="Group_29">
<path id="Vector_25" d="M89.2705 100.938C89.2705 100.938 96.7589 108.933 90.1156 114.109C89.6781 114.45 89.055 114.438 88.634 114.077L88.5779 114.029C88.1133 113.63 88.0505 112.948 88.4072 112.45C89.2754 111.238 90.3219 108.846 87.6545 106.36C87.6545 106.36 86.5379 106.841 87.099 109.12C87.2434 109.706 86.8289 110.285 86.2262 110.322C85.8148 110.348 85.4357 110.111 85.2742 109.731C84.651 108.269 83.4201 104.594 85.5334 102.18L89.2705 100.938Z" fill="#D58F6E"/>
</g>
<g id="Group_30">
<path id="Vector_26" d="M72.7576 53.6718C72.7576 53.6718 78.8137 54.6502 81.2635 63.5585L72.4718 68.5824L69.4522 63.1643L72.7576 53.6718Z" fill="#DEAE4A"/>
</g>
</g>
<g id="Group_31">
<g id="Group_32">
<path id="Vector_27" d="M24.0943 63.2047L24.7025 61.9636C25.148 61.0537 25.2508 60.0132 24.9923 59.0333L24.2716 56.3015C24.2716 56.3015 23.9171 54.8541 21.2732 56.2091C18.629 57.5641 18.472 57.6407 18.8035 58.4512C18.8035 58.4512 19.7252 59.408 21.5959 58.9911L24.0943 63.2047Z" fill="#D58F6E"/>
</g>
<g id="Group_33">
<path id="Vector_28" d="M20.7337 64.8827C20.7337 64.8827 17.4461 64.36 15.5762 59.6147C15.3609 59.0682 15.4441 58.4453 15.795 57.9748C16.3353 57.25 17.9537 55.3332 19.3242 55.686L22.1469 57.468L24.0938 63.2054L20.7337 64.8827Z" fill="#D58F6E"/>
</g>
<g id="Group_34">
<path id="Vector_29" d="M22.245 56.4878L20.9652 48.2159C20.8892 47.7233 20.4314 47.3823 19.9372 47.4506C19.4438 47.5189 19.0966 47.9706 19.1571 48.4647L19.9322 54.7916L19.3294 55.1501L14.9431 50.0557C14.6349 49.6979 14.0908 49.6685 13.746 49.9908C13.4442 50.2731 13.3964 50.7343 13.6337 51.0729L18.8045 58.4527L22.245 56.4878Z" fill="#D58F6E"/>
</g>
<g id="Group_35">
<path id="Vector_30" d="M22.1423 55.831C22.1423 55.831 18.2511 56.8363 18.8035 58.4514C18.8035 58.4514 19.1592 59.6808 21.5959 58.9913C21.5959 58.9913 20.2659 59.9445 20.8075 61.6205" stroke="#BE6F4E" stroke-width="1.74499" stroke-miterlimit="10"/>
</g>
</g>
<g id="Group_36">
<g id="Group_37">
<path id="Vector_31" d="M41.62 56.7131C41.62 56.7131 37.6847 57.9036 36.2957 68.4299L44.925 71.7526L48.6106 64.602L41.62 56.7131Z" fill="#DEAE4A"/>
</g>
<g id="Group_38">
<path id="Vector_32" d="M44.922 71.7517C44.922 71.7517 40.9315 80.8128 39.9112 82.489C38.8559 84.2226 37.0167 85.2841 35.1506 84.4828C33.4711 83.7613 32.6016 81.8941 33.1313 80.1463L36.9506 68.6404L44.922 71.7517Z" fill="#D58F6E"/>
</g>
</g>
<g id="Group_39">
<g id="Group_40">
<path id="Vector_33" d="M24.046 61.9034L38.7005 77.922L33.822 83.5021L20.0994 64.1135L24.046 61.9034Z" fill="#D58F6E"/>
</g>
<g id="Group_41">
<path id="Vector_34" d="M33.6365 72.3845L37.5279 76.6382" stroke="#BE6F4E" stroke-width="1.74499" stroke-miterlimit="10"/>
</g>
</g>
<g id="Group_42">
<g id="Group_43">
<path id="Vector_35" d="M66.8942 52.4471L72.8487 53.682L70.1741 80.0105L50.9751 83.0456L41.6 56.7172L48.0116 54.1205L66.8942 52.4471Z" fill="#DEAE4A"/>
</g>
<g id="Group_44">
<path id="Vector_36" d="M70.6774 84.1289L51.1982 84.2615L50.5551 81.8904L70.1719 80.0063L70.6774 84.1289Z" fill="#1A1A1A"/>
</g>
<g id="Group_45">
<path id="Vector_37" d="M46.1337 69.4574L43.5691 62.9397" stroke="#C28E2D" stroke-width="3.48998" stroke-miterlimit="10"/>
</g>
<g id="Group_46">
<path id="Vector_38" d="M71.5121 66.8629L72.3343 59.0179" stroke="#C28E2D" stroke-width="3.48998" stroke-miterlimit="10"/>
</g>
<g id="Group_47">
<path id="Vector_39" d="M59.0401 50.6719L66.8976 52.449C66.8976 52.449 66.4999 55.4935 57.8267 56.8649C50.2709 58.0599 48.0132 54.1233 48.0132 54.1233L54.9275 51.3222L59.0401 50.6719Z" fill="#D58F6E"/>
</g>
</g>
</g>
</g>
</g>
<g id="Clip path group_3">
<mask id="mask2_169_33843" style="mask-type:luminance" maskUnits="userSpaceOnUse" x="-9" y="-22" width="185" height="185">
<g id="__lottie_element_779">
<path id="Vector_40" d="M-8.72217 -21.9829H175.722V162.303H-8.72217V-21.9829Z" fill="white"/>
</g>
</mask>
<g mask="url(#mask2_169_33843)">
<g id="Group_48">
<g id="Group_49">
<g id="Group_50">
<path id="Vector_41" d="M113.194 88.457L121.333 130.043H105.557L99.5095 102.56L98.118 102.475L98.0967 130.043H82.3682L83.1709 88.457H113.194Z" fill="#CABCA7"/>
</g>
<g id="Group_51">
<path id="Vector_42" d="M95.4536 102.281H104.435" stroke="#AA8A5D" stroke-width="3.48998" stroke-miterlimit="10"/>
</g>
</g>
<g id="Group_52">
<g id="Group_53">
<path id="Vector_43" d="M89.299 48.123L77.8584 52.1063L83.205 89.2959L113.261 88.8242L108.823 46.9531L97.4985 47.4608L89.299 48.123Z" fill="#00534A"/>
</g>
<g id="Group_54">
<path id="Vector_44" d="M110.304 60.6534L109.648 55.6926" stroke="#04211F" stroke-width="3.48998" stroke-miterlimit="10"/>
</g>
<g id="Group_55">
<path id="Vector_45" d="M87.9847 67.3792C85.9722 67.6444 84.1251 66.2289 83.8589 64.2178L83.3771 60.5762L90.6645 59.6157L91.1463 63.2573C91.4125 65.2684 89.9969 67.1139 87.9847 67.3792Z" fill="#04211F"/>
</g>
<g id="Group_56">
<path id="Vector_46" d="M97.9502 47.4208L96.2351 35.299L87.418 36.4612L88.7857 48.3066L97.9502 47.4208Z" fill="#E7ABA2"/>
</g>
<g id="Group_57">
<path id="Vector_47" d="M87.1611 40.1006C86.5634 39.1132 90.9903 45.5021 94.5332 44.6436C97.5718 43.9072 96.9613 38.3111 96.9613 38.3111C96.9613 38.3111 96.1009 40.2178 92.8485 40.6507C89.2204 41.1332 87.1611 40.1006 87.1611 40.1006Z" fill="#3A1616"/>
</g>
<g id="Group_58">
<path id="Vector_48" d="M88.7833 48.3049L94.2226 53.6678L97.9485 47.4194L88.7833 48.3049Z" fill="#E7ABA2"/>
</g>
<g id="Group_59">
<path id="Vector_49" d="M88.6717 47.463L86.1156 49.2347L90.0365 55.0358L92.8264 52.2923L88.6717 47.463Z" fill="#04211F"/>
</g>
<g id="Group_60">
<path id="Vector_50" d="M97.8196 46.256L101.099 47.3006L98.653 53.8989L95.2601 51.9012L97.8196 46.256Z" fill="#04211F"/>
</g>
</g>
<g id="Group_61">
<g id="Group_62">
<path id="Vector_51" d="M100.045 27.9897C99.8168 33.5245 97.2726 38.4925 92.2268 39.1576C87.181 39.8226 83.1169 35.779 81.772 30.3981C80.2465 24.2929 84.4977 19.5438 89.5435 18.8787C94.5892 18.2137 100.279 22.3063 100.045 27.9897Z" fill="black"/>
</g>
<g id="Group_63">
<path id="Vector_52" d="M99.1798 30.9716C99.1798 30.9716 99.6993 29.8394 101.124 30.175C102.549 30.5106 102.371 33.8847 100.391 34.5726C100.391 34.5726 99.6829 34.8279 99.0448 34.4039C99.0448 34.4039 99.2235 31.9052 99.1798 30.9716Z" fill="#E7ABA2"/>
</g>
<g id="Group_64">
<path id="Vector_53" d="M101.009 31.3717C101.009 31.3717 99.8216 31.1425 99.2364 32.922" stroke="#161211" stroke-width="1.9237" stroke-linecap="round" stroke-linejoin="round"/>
</g>
<g id="Group_65">
<path id="Vector_54" d="M83.5955 33.0282C83.5955 33.0282 82.7993 32.0694 81.5109 32.7626C80.2222 33.4559 81.2716 36.6682 83.3623 36.8196C83.3623 36.8196 84.1127 36.8826 84.619 36.3078C84.619 36.3078 83.7965 33.9411 83.5955 33.0282Z" fill="#E7ABA2"/>
</g>
<g id="Group_66">
<path id="Vector_55" d="M81.9336 33.8884C81.9336 33.8884 83.0199 33.3595 84.0479 34.9264" stroke="#161211" stroke-width="1.9237" stroke-linecap="round" stroke-linejoin="round"/>
</g>
<g id="Group_67">
<path id="Vector_56" d="M98.9311 28.1184C99.2109 30.2287 99.5768 34.673 98.5549 37.4743C97.5952 40.1043 95.6449 41.7088 92.8684 42.1549C90.6532 42.5107 87.1753 40.8497 85.7952 38.8822C83.709 35.9078 83.0414 30.2525 83.0414 30.2525C83.0414 30.2525 82.0438 22.7131 89.9049 21.6769C98.1846 20.5856 98.9311 28.1184 98.9311 28.1184Z" fill="#E7ABA2"/>
</g>
<g id="Group_68">
<path id="Vector_57" d="M88.5743 32.0852C88.6186 32.4204 88.3823 32.7281 88.047 32.7723C87.7116 32.8165 87.4034 32.5806 87.359 32.2454C87.3147 31.9102 87.551 31.6025 87.8863 31.5583C88.2217 31.5141 88.5299 31.7501 88.5743 32.0852Z" fill="#1A1A1A"/>
</g>
<g id="Group_69">
<path id="Vector_58" d="M94.8538 31.2566C94.8982 31.5918 94.6615 31.8996 94.3265 31.9437C93.9908 31.988 93.6829 31.752 93.6385 31.4168C93.5942 31.0816 93.8302 30.774 94.1659 30.7297C94.5009 30.6856 94.8095 30.9214 94.8538 31.2566Z" fill="#1A1A1A"/>
</g>
<g id="Group_70">
<path id="Vector_59" d="M89.2844 29.4759L85.1196 31.158C85.1196 31.158 85.1557 29.923 86.8617 29.2512C88.5677 28.5793 89.2844 29.4759 89.2844 29.4759Z" fill="#1A1A1A"/>
</g>
<g id="Group_71">
<path id="Vector_60" d="M92.0254 29.1136L96.4845 29.6589C96.4845 29.6589 96.1285 28.4757 94.3063 28.2689C92.484 28.0622 92.0254 29.1136 92.0254 29.1136Z" fill="#1A1A1A"/>
</g>
<g id="Group_72">
<path id="Vector_61" d="M90.7424 33.3662L90.9459 34.9061L92.0637 34.7585" stroke="#161211" stroke-width="1.9237" stroke-linecap="round" stroke-linejoin="round"/>
</g>
<g id="Group_73">
<path id="Vector_62" d="M95.2003 35.663L88.5995 36.5332C88.5995 36.5332 89.0132 38.2439 91.9589 37.8611C94.6739 37.5081 95.2003 35.663 95.2003 35.663Z" fill="white"/>
</g>
<g id="Group_74">
<path id="Vector_63" d="M83.5966 33.0282C83.5966 33.0282 85.9418 28.1275 83.1913 25.1108C83.1913 25.1108 81.7382 25.3248 82.5506 31.072L83.5966 33.0282Z" fill="black"/>
</g>
<g id="Group_75">
<path id="Vector_64" d="M99.1791 30.9724C99.1791 30.9724 95.6398 26.8475 97.5115 23.2214C97.5115 23.2214 98.9705 23.0515 99.6802 28.8122L99.1791 30.9724Z" fill="black"/>
</g>
<g id="Group_76">
<path id="Vector_65" d="M82.379 24.9963C82.379 24.9963 86.7484 28.7925 94.4682 26.9185C101.361 25.245 101.319 20.2637 99.3975 18.5458C96.6524 16.091 91.5401 17.8116 89.1443 21.2726L82.379 24.9963Z" fill="black"/>
</g>
</g>
<g id="Group_77">
<g id="Group_78">
<path id="Vector_66" d="M116.478 56.6633L130.696 50.9628C133.518 49.7533 134.852 46.5086 133.697 43.6643C132.506 40.7338 129.137 39.3549 126.234 40.6087L112.054 46.7323L116.478 56.6633Z" fill="#E7ABA2"/>
</g>
<g id="Group_79">
<path id="Vector_67" d="M116.376 43.4422L102.254 47.2234L108.304 61.3431L121.651 56.6784L116.376 43.4422Z" fill="#00534A"/>
</g>
</g>
<g id="Group_80">
<g id="Group_81">
<path id="Vector_68" d="M133.962 44.3102L123.06 21.8185L117.494 25.2087L123.883 48.7733L133.962 44.3102Z" fill="#E7ABA2"/>
</g>
<g id="Group_82">
<path id="Vector_69" d="M122.138 42.0896L123.041 45.549" stroke="#D8857D" stroke-width="1.74499" stroke-miterlimit="10"/>
</g>
</g>
<g id="Group_83">
<g id="Group_84">
<path id="Vector_70" d="M123.566 22.5881C123.085 20.2833 121.184 17.8268 121.184 17.8268L119.635 12.8333C119.519 12.3488 119.057 12.0285 118.562 12.0899C118.029 12.156 117.649 12.6392 117.71 13.1728L118.503 16.4762L118.068 16.6319L115.554 11.7935C115.274 11.1953 114.538 10.97 113.972 11.3106C113.5 11.5935 113.307 12.1783 113.516 12.6867L115.99 18.018L115.579 18.2729L111.948 13.4046C111.539 12.8347 110.737 12.7205 110.187 13.1537C109.68 13.5525 109.568 14.275 109.93 14.8085L113.916 20.4506L113.41 20.8168L109.632 17.2264C109.194 16.8109 108.493 16.8638 108.122 17.3399C107.825 17.7214 107.837 18.259 108.15 18.6281L112.511 23.6582L110.726 24.2855C109.901 24.6026 109.529 25.5622 109.926 26.3531C110.205 26.9113 110.802 27.2383 111.423 27.1728L113.964 26.8512C113.964 26.8512 116.418 28.3356 119.476 28.1639C119.476 28.1639 123.933 24.3462 123.566 22.5881Z" fill="#E7ABA2"/>
</g>
<g id="Group_85">
<path id="Vector_71" d="M112.509 23.6579C112.509 23.6579 115.806 22.1786 118.533 23.3165" stroke="#D8857D" stroke-width="1.74499" stroke-miterlimit="10"/>
</g>
</g>
<g id="Group_86">
<g id="Group_87">
<path id="Vector_72" d="M72.0246 87.6532L93.8104 82.1172L93.719 74.696L68.2358 77.1433L72.0246 87.6532Z" fill="#E7ABA2"/>
</g>
<g id="Group_88">
<path id="Vector_73" d="M79.655 76.0424L73.7842 76.613" stroke="#D8857D" stroke-width="1.74499" stroke-miterlimit="10"/>
</g>
<g id="Group_89">
<path id="Vector_74" d="M92.3302 75.3119C92.3302 75.3119 94.2779 70.8895 98.4313 73.9231L97.7072 76.8229L92.3302 75.3119Z" fill="#E7ABA2"/>
</g>
<g id="Group_90">
<path id="Vector_75" d="M94.7248 70.5507L95.0563 76.0485L101.912 75.2861L101.823 69.9542C101.813 69.3793 101.313 68.9357 100.741 68.9938L95.6054 69.5155C95.0815 69.5686 94.6932 70.0255 94.7248 70.5507Z" fill="#1A1A1A"/>
</g>
<g id="Group_91">
<path id="Vector_76" d="M93.6398 74.5404L101.597 72.9551C102.52 72.7712 103.421 73.3563 103.628 74.2733C103.774 74.922 103.536 75.5973 103.016 76.0106L102.638 76.3104C102.638 76.3104 104.8 82.1175 100.206 83.9013C95.6117 85.685 92.0999 82.5298 92.0999 82.5298L93.6398 74.5404Z" fill="#E7ABA2"/>
</g>
</g>
<g id="Group_92">
<g id="Group_93">
<path id="Vector_77" d="M71.0696 63.5745L65.8292 80.4753C64.9122 83.4332 66.5337 86.5818 69.4754 87.5559C72.3811 88.5181 75.5263 87.0094 76.5925 84.1428L82.42 68.4715L71.0696 63.5745Z" fill="#E7ABA2"/>
</g>
<g id="Group_94">
<path id="Vector_78" d="M68.9117 66.2242L82.5321 71.4555L82.5546 61.8461C83.909 58.1421 85.675 53.6459 81.9903 52.2321C78.2573 50.8002 74.0722 52.6689 72.651 56.4025L68.9117 66.2242Z" fill="#00534A"/>
</g>
<g id="Group_95">
<path id="Vector_79" d="M81.6355 71.1091L79.5012 60.792" stroke="#04211F" stroke-width="3.48998" stroke-miterlimit="10"/>
</g>
</g>
</g>
</g>
</g>
</g>
</g>
</g>
</g>
<defs>
<clipPath id="clip0_169_33843">
<rect width="166" height="129" fill="white" transform="translate(0.5 0.5)"/>
</clipPath>
</defs>
</svg>
