<svg width="184" height="136" viewBox="0 0 184 136" fill="none" xmlns="http://www.w3.org/2000/svg">
<path d="M85.6334 -35.5242C67.6157 -28.3678 57.16 -9.97955 43.522 3.83367C35.701 11.7738 26.6335 18.3277 18.5925 26.0377C10.5515 33.7476 3.43921 42.9858 0.99514 53.86C-3.65349 74.4721 9.30499 94.6041 12.6974 115.461C13.7776 122.123 13.8901 128.995 16.0458 135.383C17.7517 140.438 20.6846 145.008 24.077 149.098C37.8176 165.781 59.8094 175.289 81.3514 173.859C95.5613 172.913 109.214 167.55 123.463 166.957C144.936 166.061 166.611 176.053 187.439 170.758C197.044 168.309 205.55 162.798 213.723 157.185C229.941 146.041 246.825 132.375 250.594 113.032C253.361 98.8265 248.433 83.8524 251.87 69.7991C253.864 61.6435 258.552 54.3989 261.025 46.3754C266.28 29.3636 260.668 10.0104 248.697 -3.15131C236.726 -16.3131 219.158 -23.5821 201.453 -25.1251C189.844 -26.139 178.161 -24.8606 166.508 -25.0859C138.069 -25.6051 115.143 -47.2458 85.6334 -35.5242Z" fill="#EEEDF8"/>
</svg>
